<svg width="26" height="26" viewBox="0 0 26 26" fill="none" xmlns="http://www.w3.org/2000/svg">
<path d="M23 9.16119V9.23419C23 10.0942 23 10.5252 22.793 10.8772C22.586 11.2292 22.209 11.4382 21.457 11.8572L20.664 12.2972C21.21 10.4492 21.393 8.46319 21.46 6.76519L21.47 6.54419L21.472 6.49219C22.123 6.71819 22.489 6.88719 22.717 7.20319C23 7.59619 23 8.11819 23 9.16119ZM3 9.16119V9.23419C3 10.0942 3 10.5252 3.207 10.8772C3.414 11.2292 3.791 11.4382 4.543 11.8572L5.337 12.2972C4.79 10.4492 4.607 8.46319 4.54 6.76519L4.53 6.54419L4.529 6.49219C3.877 6.71819 3.511 6.88719 3.283 7.20319C3 7.59619 3 8.11919 3 9.16119Z" fill="white"/>
<path fill-rule="evenodd" clip-rule="evenodd" d="M13.3193 3.00023C15.1033 3.00023 16.5723 3.15723 17.6963 3.34723C18.8353 3.53923 19.4043 3.63523 19.8803 4.22123C20.3563 4.80723 20.3303 5.44023 20.2803 6.70623C20.1083 11.0552 19.1703 16.4862 14.0693 16.9662V20.5002H15.4993C15.7304 20.5004 15.9543 20.5805 16.133 20.7271C16.3116 20.8737 16.434 21.0776 16.4793 21.3042L16.6693 22.2502H19.3193C19.5182 22.2502 19.709 22.3292 19.8496 22.4699C19.9903 22.6105 20.0693 22.8013 20.0693 23.0002C20.0693 23.1991 19.9903 23.3899 19.8496 23.5306C19.709 23.6712 19.5182 23.7502 19.3193 23.7502H7.31931C7.1204 23.7502 6.92963 23.6712 6.78898 23.5306C6.64833 23.3899 6.56931 23.1991 6.56931 23.0002C6.56931 22.8013 6.64833 22.6105 6.78898 22.4699C6.92963 22.3292 7.1204 22.2502 7.31931 22.2502H9.96931L10.1593 21.3042C10.2046 21.0776 10.327 20.8737 10.5056 20.7271C10.6843 20.5805 10.9082 20.5004 11.1393 20.5002H12.5693V16.9662C7.46931 16.4862 6.53131 11.0542 6.35931 6.70623C6.30831 5.44023 6.28331 4.80623 6.75931 4.22123C7.23431 3.63523 7.80331 3.53923 8.94231 3.34723C10.3891 3.11022 11.8532 2.99415 13.3193 3.00023ZM14.2713 7.19923L14.1733 7.02323C13.7933 6.34023 13.6033 6.00023 13.3193 6.00023C13.0353 6.00023 12.8453 6.34023 12.4653 7.02323L12.3673 7.19923C12.2593 7.39323 12.2053 7.48923 12.1213 7.55323C12.0363 7.61723 11.9313 7.64123 11.7213 7.68823L11.5313 7.73223C10.7933 7.89923 10.4243 7.98223 10.3363 8.26423C10.2483 8.54623 10.5003 8.84123 11.0033 9.42923L11.1333 9.58123C11.2763 9.74823 11.3483 9.83123 11.3803 9.93523C11.4123 10.0392 11.4013 10.1502 11.3803 10.3732L11.3603 10.5762C11.2843 11.3612 11.2463 11.7542 11.4753 11.9282C11.7053 12.1022 12.0513 11.9432 12.7423 11.6252L12.9203 11.5432C13.1173 11.4532 13.2153 11.4082 13.3193 11.4082C13.4233 11.4082 13.5213 11.4532 13.7183 11.5432L13.8963 11.6252C14.5873 11.9442 14.9333 12.1022 15.1633 11.9282C15.3933 11.7542 15.3543 11.3612 15.2783 10.5762L15.2583 10.3732C15.2373 10.1502 15.2263 10.0392 15.2583 9.93523C15.2903 9.83123 15.3623 9.74823 15.5053 9.58123L15.6353 9.42923C16.1383 8.84123 16.3903 8.54723 16.3023 8.26423C16.2143 7.98223 15.8453 7.89923 15.1073 7.73223L14.9173 7.68823C14.7073 7.64123 14.6023 7.61823 14.5173 7.55323C14.4333 7.48923 14.3793 7.39323 14.2713 7.19923Z" fill="white"/>
</svg>
