<svg width="36" height="36" viewBox="0 0 36 36" fill="none" xmlns="http://www.w3.org/2000/svg">
<rect width="36" height="36" rx="8" fill="white" fill-opacity="0.05"/>
<g clip-path="url(#clip0_3204_8643)">
<path d="M25.4375 4H10.5625C6.93813 4 4 6.93813 4 10.5625V25.4375C4 29.0619 6.93813 32 10.5625 32H25.4375C29.0619 32 32 29.0619 32 25.4375V10.5625C32 6.93813 29.0619 4 25.4375 4Z" fill="#5865F2"/>
<mask id="mask0_3204_8643" style="mask-type:luminance" maskUnits="userSpaceOnUse" x="7" y="9" width="22" height="17">
<path d="M7.05957 9.57593H28.598V25.7298H7.05957V9.57593Z" fill="white"/>
</mask>
<g mask="url(#mask0_3204_8643)">
<path d="M25.2927 11.0166C23.8963 10.3961 22.4226 9.95353 20.9086 9.70003C20.8949 9.69759 20.8807 9.69941 20.868 9.70521C20.8554 9.711 20.845 9.7205 20.8382 9.73235C20.6489 10.0583 20.4391 10.4837 20.2923 10.818C18.6368 10.5779 16.9898 10.5779 15.3683 10.818C15.2214 10.4762 15.0041 10.0583 14.8139 9.73235C14.8069 9.72069 14.7964 9.71136 14.7838 9.70559C14.7712 9.69982 14.7571 9.69788 14.7433 9.70003C13.2292 9.95295 11.7555 10.3955 10.3593 11.0166C10.3474 11.0216 10.3374 11.03 10.3304 11.0406C7.5382 15.0794 6.77337 19.019 7.14857 22.9097C7.15085 22.9289 7.16092 22.9465 7.17657 22.9585C9.01875 24.2684 10.8033 25.0637 12.5547 25.5907C12.5683 25.5946 12.5829 25.5944 12.5964 25.5901C12.6099 25.5858 12.6217 25.5777 12.6303 25.5667C13.0446 25.0189 13.4139 24.4414 13.7306 23.834C13.735 23.8257 13.7375 23.8166 13.7379 23.8073C13.7384 23.798 13.7368 23.7887 13.7333 23.78C13.7297 23.7713 13.7243 23.7634 13.7174 23.7569C13.7105 23.7504 13.7023 23.7454 13.6932 23.7422C13.1074 23.527 12.5497 23.2648 12.0131 22.9669C12.0034 22.9613 11.9952 22.9535 11.9892 22.9441C11.9833 22.9347 11.9799 22.9241 11.9792 22.9132C11.9785 22.9022 11.9807 22.8912 11.9854 22.8813C11.9901 22.8713 11.9973 22.8626 12.0064 22.8559C12.1195 22.774 12.2308 22.6896 12.34 22.6028C12.3496 22.5951 12.3611 22.5902 12.3734 22.5886C12.3857 22.587 12.3982 22.5887 12.4096 22.5936C15.9345 24.1517 19.7506 24.1517 23.2339 22.5936C23.2453 22.5884 23.2579 22.5865 23.2704 22.5879C23.2829 22.5894 23.2947 22.5943 23.3045 22.6019C23.4138 22.6893 23.5253 22.7739 23.6389 22.8559C23.648 22.8625 23.6553 22.8712 23.6601 22.8811C23.6649 22.891 23.6671 22.902 23.6665 22.9129C23.6659 22.9239 23.6626 22.9345 23.6567 22.9439C23.6509 22.9534 23.6427 22.9612 23.633 22.9669C23.0962 23.2704 22.5339 23.5294 21.9521 23.7414C21.943 23.7447 21.9349 23.7499 21.928 23.7565C21.9212 23.7631 21.9159 23.7711 21.9125 23.7798C21.909 23.7886 21.9075 23.7979 21.9081 23.8073C21.9086 23.8166 21.9111 23.8257 21.9155 23.834C22.2377 24.4366 22.6052 25.0154 23.0149 25.5659C23.0233 25.5771 23.035 25.5855 23.0486 25.59C23.0621 25.5944 23.0768 25.5947 23.0905 25.5907C24.8504 25.0637 26.6349 24.2684 28.4772 22.9585C28.4851 22.9529 28.4917 22.9457 28.4965 22.9374C28.5013 22.9292 28.5043 22.92 28.5052 22.9106C28.9543 18.4125 27.753 14.5051 25.3207 11.0414C25.3148 11.0301 25.3048 11.0213 25.2927 11.0166ZM14.257 20.5407C13.1957 20.5407 12.3212 19.5974 12.3212 18.4389C12.3212 17.2804 13.1788 16.3371 14.257 16.3371C15.3436 16.3371 16.2096 17.2888 16.1926 18.4389C16.1926 19.5974 15.3351 20.5407 14.257 20.5407ZM21.4138 20.5407C20.3525 20.5407 19.4781 19.5974 19.4781 18.4389C19.4781 17.2804 20.3356 16.3371 21.4138 16.3371C22.5004 16.3371 23.3664 17.2888 23.3495 18.4389C23.3495 19.5974 22.5004 20.5407 21.4138 20.5407Z" fill="white"/>
</g>
</g>
<defs>
<clipPath id="clip0_3204_8643">
<rect width="28" height="28" fill="white" transform="translate(4 4)"/>
</clipPath>
</defs>
</svg>
