<svg width="36" height="36" viewBox="0 0 36 36" fill="none" xmlns="http://www.w3.org/2000/svg">
<rect width="36" height="36" rx="8" fill="white" fill-opacity="0.05"/>
<g clip-path="url(#clip0_3204_8664)">
<path d="M25.4375 4H10.5625C6.93813 4 4 6.93813 4 10.5625V25.4375C4 29.0619 6.93813 32 10.5625 32H25.4375C29.0619 32 32 29.0619 32 25.4375V10.5625C32 6.93813 29.0619 4 25.4375 4Z" fill="url(#paint0_radial_3204_8664)"/>
<path d="M25.4375 4H10.5625C6.93813 4 4 6.93813 4 10.5625V25.4375C4 29.0619 6.93813 32 10.5625 32H25.4375C29.0619 32 32 29.0619 32 25.4375V10.5625C32 6.93813 29.0619 4 25.4375 4Z" fill="url(#paint1_radial_3204_8664)"/>
<path d="M18.001 7.0625C15.0306 7.0625 14.6577 7.07552 13.4911 7.12856C12.3267 7.18194 11.5319 7.36623 10.8365 7.63672C10.117 7.91606 9.50681 8.2898 8.89891 8.89792C8.29045 9.50594 7.91672 10.1161 7.6365 10.8353C7.36525 11.5309 7.18073 12.3261 7.12834 13.4899C7.07617 14.6566 7.0625 15.0296 7.0625 18.0001C7.0625 20.9706 7.07563 21.3423 7.12856 22.5089C7.18216 23.6733 7.36645 24.4681 7.63672 25.1635C7.91628 25.883 8.29002 26.4932 8.89814 27.1011C9.50594 27.7095 10.1161 28.0842 10.8351 28.3635C11.531 28.634 12.326 28.8183 13.4901 28.8717C14.6568 28.9247 15.0294 28.9377 17.9997 28.9377C20.9704 28.9377 21.3421 28.9247 22.5087 28.8717C23.6731 28.8183 24.4688 28.634 25.1647 28.3635C25.8839 28.0842 26.4932 27.7095 27.1009 27.1011C27.7093 26.4932 28.083 25.883 28.3633 25.1638C28.6321 24.4681 28.8167 23.6731 28.8714 22.5091C28.9238 21.3425 28.9375 20.9706 28.9375 18.0001C28.9375 15.0296 28.9238 14.6568 28.8714 13.4901C28.8167 12.3257 28.6321 11.531 28.3633 10.8356C28.083 10.1161 27.7093 9.50594 27.1009 8.89792C26.4925 8.28958 25.8841 7.91584 25.1641 7.63683C24.4668 7.36623 23.6715 7.18183 22.5071 7.12856C21.3404 7.07552 20.969 7.0625 17.9976 7.0625H18.001ZM17.0198 9.03355C17.311 9.03311 17.636 9.03355 18.001 9.03355C20.9214 9.03355 21.2675 9.04405 22.4207 9.09644C23.4871 9.14522 24.0659 9.32339 24.4515 9.47312C24.9619 9.67131 25.3258 9.90833 25.7084 10.2912C26.0912 10.6741 26.3281 11.0386 26.5269 11.5491C26.6766 11.9341 26.855 12.5129 26.9036 13.5793C26.956 14.7323 26.9673 15.0786 26.9673 17.9976C26.9673 20.9166 26.956 21.263 26.9036 22.4159C26.8548 23.4823 26.6766 24.0611 26.5269 24.4462C26.3287 24.9567 26.0912 25.3201 25.7084 25.7027C25.3256 26.0855 24.9622 26.3225 24.4515 26.5208C24.0664 26.6711 23.4871 26.8489 22.4207 26.8977C21.2677 26.95 20.9214 26.9614 18.001 26.9614C15.0805 26.9614 14.7343 26.95 13.5814 26.8977C12.515 26.8484 11.9361 26.6703 11.5503 26.5205C11.0399 26.3222 10.6753 26.0853 10.2925 25.7025C9.90964 25.3197 9.67273 24.956 9.474 24.4454C9.32427 24.0602 9.14587 23.4814 9.09731 22.415C9.04492 21.262 9.03442 20.9157 9.03442 17.9949C9.03442 15.074 9.04492 14.7296 9.09731 13.5765C9.14609 12.5101 9.32427 11.9313 9.474 11.5458C9.6723 11.0353 9.90964 10.6708 10.2926 10.288C10.6755 9.90516 11.0399 9.66814 11.5504 9.46952C11.9359 9.31912 12.515 9.14139 13.5814 9.09239C14.5903 9.04678 14.9814 9.03311 17.0198 9.03081V9.03355ZM23.8394 10.8496C23.1148 10.8496 22.5269 11.437 22.5269 12.1617C22.5269 12.8863 23.1148 13.4742 23.8394 13.4742C24.564 13.4742 25.1519 12.8863 25.1519 12.1617C25.1519 11.4371 24.564 10.8492 23.8394 10.8492V10.8496ZM18.001 12.3832C14.8991 12.3832 12.3841 14.8981 12.3841 18.0001C12.3841 21.1021 14.8991 23.6159 18.001 23.6159C21.103 23.6159 23.6171 21.1021 23.6171 18.0001C23.6171 14.8982 21.1028 12.3832 18.0008 12.3832H18.001ZM18.001 14.3542C20.0145 14.3542 21.6469 15.9864 21.6469 18.0001C21.6469 20.0136 20.0145 21.646 18.001 21.646C15.9875 21.646 14.3552 20.0136 14.3552 18.0001C14.3552 15.9864 15.9874 14.3542 18.001 14.3542Z" fill="white"/>
</g>
<defs>
<radialGradient id="paint0_radial_3204_8664" cx="0" cy="0" r="1" gradientUnits="userSpaceOnUse" gradientTransform="translate(11.4375 34.1565) rotate(-90) scale(27.7501 25.8098)">
<stop stop-color="#FFDD55"/>
<stop offset="0.1" stop-color="#FFDD55"/>
<stop offset="0.5" stop-color="#FF543E"/>
<stop offset="1" stop-color="#C837AB"/>
</radialGradient>
<radialGradient id="paint1_radial_3204_8664" cx="0" cy="0" r="1" gradientUnits="userSpaceOnUse" gradientTransform="translate(-0.690109 6.01698) rotate(78.681) scale(12.4044 51.1315)">
<stop stop-color="#3771C8"/>
<stop offset="0.128" stop-color="#3771C8"/>
<stop offset="1" stop-color="#6600FF" stop-opacity="0"/>
</radialGradient>
<clipPath id="clip0_3204_8664">
<rect width="28" height="28" fill="white" transform="translate(4 4)"/>
</clipPath>
</defs>
</svg>
