<svg width="26" height="26" viewBox="0 0 26 26" fill="none" xmlns="http://www.w3.org/2000/svg">
<path d="M20.6558 7.99993C20.7095 7.69347 20.6955 7.37897 20.6147 7.07851C20.5339 6.77805 20.3884 6.4989 20.1883 6.26067C19.9882 6.02244 19.7383 5.83089 19.4563 5.69948C19.1743 5.56806 18.8669 5.49997 18.5558 5.49997H7.63197C7.32084 5.49997 7.01348 5.56806 6.73147 5.69948C6.44946 5.83089 6.19963 6.02244 5.99951 6.26067C5.79939 6.4989 5.65385 6.77805 5.57308 7.07851C5.49232 7.37897 5.4783 7.69347 5.532 7.99993M18.5938 5.49997C18.6218 5.23997 18.6368 5.11097 18.6368 5.00397C18.6379 4.50967 18.4559 4.03248 18.1259 3.66446C17.7959 3.29643 17.3413 3.06364 16.8498 3.011C16.7438 3 16.6138 3 16.3539 3H9.83394C9.57394 3 9.44295 3 9.33695 3.011C8.84546 3.06364 8.39087 3.29643 8.06089 3.66446C7.7309 4.03248 7.54889 4.50967 7.54997 5.00397C7.54997 5.11097 7.56397 5.24097 7.59297 5.49997" stroke="#CACACA" stroke-width="1.5"/>
<path d="M16.4999 19.002H10.5" stroke="white" stroke-width="1.5" stroke-linecap="round"/>
<path d="M3.38432 14.7929C2.93733 11.629 2.71433 10.048 3.66232 9.02299C4.61031 8 6.29828 8 9.67224 8H16.3281C19.7021 8 21.3901 8 22.3381 9.02399C23.2861 10.048 23.0621 11.629 22.6161 14.7929L22.1941 17.7929C21.8441 20.2728 21.6691 21.5138 20.7721 22.2568C19.8751 22.9998 18.5521 22.9998 15.9052 22.9998H10.0952C7.44927 22.9998 6.12529 22.9998 5.2283 22.2568C4.33131 21.5138 4.15631 20.2738 3.80632 17.7929L3.38432 14.7929Z" stroke="white" stroke-width="1.5"/>
</svg>
