<svg width="26" height="26" viewBox="0 0 26 26" fill="none" xmlns="http://www.w3.org/2000/svg">
<mask id="mask0_3612_3704" style="mask-type:alpha" maskUnits="userSpaceOnUse" x="0" y="0" width="26" height="26">
<rect width="26" height="26" fill="#D9D9D9"/>
</mask>
<g mask="url(#mask0_3612_3704)">
<path d="M13.0002 12.9994C11.8085 12.9994 10.7884 12.5751 9.93975 11.7265C9.09114 10.8779 8.66683 9.85776 8.66683 8.6661C8.66683 7.47443 9.09114 6.45429 9.93975 5.60568C10.7884 4.75707 11.8085 4.33276 13.0002 4.33276C14.1918 4.33276 15.212 4.75707 16.0606 5.60568C16.9092 6.45429 17.3335 7.47443 17.3335 8.6661C17.3335 9.85776 16.9092 10.8779 16.0606 11.7265C15.212 12.5751 14.1918 12.9994 13.0002 12.9994ZM4.3335 21.6661V18.6328C4.3335 18.0189 4.49148 17.4546 4.80745 16.9401C5.12343 16.4255 5.54322 16.0328 6.06683 15.7619C7.18627 15.2022 8.32377 14.7824 9.47933 14.5026C10.6349 14.2227 11.8085 14.0828 13.0002 14.0828C14.1918 14.0828 15.3654 14.2227 16.521 14.5026C17.6766 14.7824 18.8141 15.2022 19.9335 15.7619C20.4571 16.0328 20.8769 16.4255 21.1929 16.9401C21.5088 17.4546 21.6668 18.0189 21.6668 18.6328V21.6661H4.3335ZM6.50016 19.4994H19.5002V18.6328C19.5002 18.4342 19.4505 18.2536 19.3512 18.0911C19.2519 17.9286 19.121 17.8022 18.9585 17.7119C17.9835 17.2244 16.9995 16.8588 16.0064 16.6151C15.0134 16.3713 14.0113 16.2494 13.0002 16.2494C11.9891 16.2494 10.987 16.3713 9.99391 16.6151C9.00086 16.8588 8.01683 17.2244 7.04183 17.7119C6.87933 17.8022 6.74843 17.9286 6.64912 18.0911C6.54982 18.2536 6.50016 18.4342 6.50016 18.6328V19.4994ZM13.0002 10.8328C13.596 10.8328 14.1061 10.6206 14.5304 10.1963C14.9547 9.772 15.1668 9.26193 15.1668 8.6661C15.1668 8.07026 14.9547 7.56019 14.5304 7.13589C14.1061 6.71158 13.596 6.49943 13.0002 6.49943C12.4043 6.49943 11.8943 6.71158 11.47 7.13589C11.0457 7.56019 10.8335 8.07026 10.8335 8.6661C10.8335 9.26193 11.0457 9.772 11.47 10.1963C11.8943 10.6206 12.4043 10.8328 13.0002 10.8328Z" fill="#F6F6F6"/>
</g>
</svg>
