<svg width="26" height="26" viewBox="0 0 26 26" fill="none" xmlns="http://www.w3.org/2000/svg">
<path d="M19.1635 12.5238V6.57048C19.1636 6.4953 19.1489 6.42085 19.1203 6.35139C19.0916 6.28194 19.0497 6.21884 18.9967 6.16571L16.0133 3.16762C15.9068 3.06042 15.7622 3.00013 15.6115 3H4.56863C4.41782 3 4.27319 3.0602 4.16655 3.16737C4.05991 3.27453 4 3.41988 4 3.57143V21.4762C4 21.6277 4.05991 21.7731 4.16655 21.8802C4.27319 21.9874 4.41782 22.0476 4.56863 22.0476H12.5295M7.79088 10.619H15.3726M7.79088 6.80952H11.5818M7.79088 14.4286H10.634" stroke="white" stroke-width="1.625" stroke-linecap="round" stroke-linejoin="round"/>
<path d="M15.3721 3V6.2381C15.3721 6.38965 15.432 6.53499 15.5386 6.64216C15.6453 6.74932 15.7899 6.80952 15.9407 6.80952H19.163M19.1554 15.5L21.5777 16.1181C21.8298 16.1829 22.0071 16.4133 21.9995 16.6743C21.8365 22.1581 18.6891 23 18.6891 23C18.6891 23 15.5417 22.1581 15.3787 16.6743C15.3761 16.5473 15.4164 16.4232 15.493 16.3222C15.5696 16.2212 15.6779 16.1493 15.8004 16.1181L18.2228 15.5C18.5289 15.4219 18.8493 15.4219 19.1554 15.5Z" stroke="white" stroke-width="1.625" stroke-linecap="round" stroke-linejoin="round"/>
</svg>
