<svg width="26" height="26" viewBox="0 0 26 26" fill="none" xmlns="http://www.w3.org/2000/svg">
<path d="M14.3848 4H5.38464C5.01741 4 4.66522 4.14588 4.40555 4.40555C4.14588 4.66522 4 5.01741 4 5.38464V20.6156C4 20.9829 4.14588 21.3351 4.40555 21.5947C4.66522 21.8544 5.01741 22.0003 5.38464 22.0003H17.8464C18.2136 22.0003 18.5658 21.8544 18.8255 21.5947C19.0851 21.3351 19.231 20.9829 19.231 20.6156V14.3848M4 17.8464H19.231M8.15391 7.46159H10.9232M8.15391 10.9232H9.53855" stroke="white" stroke-width="1.5" stroke-linecap="round" stroke-linejoin="round"/>
<path d="M15.7613 13.7005L11.6074 14.4482L12.2997 10.2389L18.1568 4.40957C18.2855 4.27979 18.4386 4.17678 18.6073 4.10649C18.7761 4.03619 18.9571 4 19.1398 4C19.3226 4 19.5036 4.03619 19.6723 4.10649C19.8411 4.17678 19.9942 4.27979 20.1229 4.40957L21.5907 5.87729C21.7204 6.00601 21.8234 6.15915 21.8937 6.32788C21.964 6.49661 22.0002 6.67759 22.0002 6.86038C22.0002 7.04317 21.964 7.22415 21.8937 7.39288C21.8234 7.56161 21.7204 7.71475 21.5907 7.84347L15.7613 13.7005Z" stroke="white" stroke-width="1.5" stroke-linecap="round" stroke-linejoin="round"/>
</svg>
