<svg width="26" height="26" viewBox="0 0 26 26" fill="none" xmlns="http://www.w3.org/2000/svg">
<path d="M10.5373 22L10.1791 19.12C9.98508 19.045 9.80239 18.955 9.63105 18.85C9.4597 18.745 9.29164 18.6325 9.12687 18.5125L6.46269 19.6375L4 15.3625L6.30597 13.6075C6.29104 13.5025 6.28358 13.4014 6.28358 13.3042V12.6967C6.28358 12.5989 6.29104 12.4975 6.30597 12.3925L4 10.6375L6.46269 6.3625L9.12687 7.4875C9.29105 7.3675 9.46269 7.255 9.64179 7.15C9.8209 7.045 10 6.955 10.1791 6.88L10.5373 4H15.4627L15.8209 6.88C16.0149 6.955 16.1979 7.045 16.3699 7.15C16.5418 7.255 16.7096 7.3675 16.8731 7.4875L19.5373 6.3625L22 10.6375L19.694 12.3925C19.709 12.4975 19.7164 12.5989 19.7164 12.6967V13.3033C19.7164 13.4011 19.7015 13.5025 19.6716 13.6075L21.9776 15.3625L19.5149 19.6375L16.8731 18.5125C16.709 18.6325 16.5373 18.745 16.3582 18.85C16.1791 18.955 16 19.045 15.8209 19.12L15.4627 22H10.5373ZM12.1045 20.2H13.8731L14.1866 17.815C14.6493 17.695 15.0785 17.5189 15.4743 17.2867C15.8702 17.0545 16.2319 16.7731 16.5597 16.4425L18.7761 17.365L19.6493 15.835L17.7239 14.3725C17.7985 14.1625 17.8507 13.9414 17.8806 13.7092C17.9104 13.477 17.9254 13.2406 17.9254 13C17.9254 12.7594 17.9104 12.5233 17.8806 12.2917C17.8507 12.0601 17.7985 11.8387 17.7239 11.6275L19.6493 10.165L18.7761 8.635L16.5597 9.58C16.2313 9.235 15.8696 8.9464 15.4743 8.7142C15.0791 8.482 14.6499 8.3056 14.1866 8.185L13.8955 5.8H12.1269L11.8134 8.185C11.3507 8.305 10.9218 8.4814 10.5266 8.7142C10.1313 8.947 9.76925 9.2281 9.4403 9.5575L7.22388 8.635L6.35075 10.165L8.27612 11.605C8.20149 11.83 8.14925 12.055 8.1194 12.28C8.08955 12.505 8.07463 12.745 8.07463 13C8.07463 13.24 8.08955 13.4725 8.1194 13.6975C8.14925 13.9225 8.20149 14.1475 8.27612 14.3725L6.35075 15.835L7.22388 17.365L9.4403 16.42C9.76866 16.765 10.1307 17.0539 10.5266 17.2867C10.9224 17.5195 11.3513 17.6956 11.8134 17.815L12.1045 20.2ZM13.0448 16.15C13.9104 16.15 14.6493 15.8425 15.2612 15.2275C15.8731 14.6125 16.1791 13.87 16.1791 13C16.1791 12.13 15.8731 11.3875 15.2612 10.7725C14.6493 10.1575 13.9104 9.85 13.0448 9.85C12.1642 9.85 11.4215 10.1575 10.8167 10.7725C10.2119 11.3875 9.90985 12.13 9.91045 13C9.91105 13.87 10.2134 14.6125 10.8176 15.2275C11.4218 15.8425 12.1642 16.15 13.0448 16.15Z" fill="white"/>
</svg>
