<svg width="36" height="36" viewBox="0 0 36 36" fill="none" xmlns="http://www.w3.org/2000/svg">
<rect width="36" height="36" rx="8" fill="white" fill-opacity="0.05"/>
<g clip-path="url(#clip0_3204_8638)">
<rect x="4" y="4" width="28" height="28" rx="8" fill="#35AFEF"/>
<path d="M10.337 17.8521C14.4189 16.0741 17.1401 14.9018 18.5007 14.3354C22.3901 12.7182 23.1973 12.4373 23.7245 12.4278C23.8404 12.426 24.0986 12.4546 24.267 12.5908C24.407 12.7056 24.4464 12.8609 24.4661 12.97C24.4836 13.0789 24.5076 13.3272 24.4879 13.521C24.2779 15.7348 23.3657 21.1068 22.902 23.5864C22.7073 24.6355 22.3201 24.9872 21.9461 25.0216C21.1323 25.0964 20.5154 24.4843 19.7279 23.9683C18.4964 23.1605 17.8007 22.6578 16.6042 21.8696C15.2217 20.9587 16.1186 20.458 16.9061 19.6399C17.1117 19.4257 20.6948 16.1675 20.7626 15.8719C20.7714 15.835 20.7801 15.6971 20.697 15.6245C20.6161 15.5517 20.4957 15.5766 20.4082 15.5963C20.2836 15.6243 18.317 16.9254 14.502 19.4995C13.9442 19.8831 13.4389 20.0702 12.9839 20.0603C12.4851 20.0496 11.5226 19.7777 10.8073 19.5454C9.9323 19.2604 9.23449 19.1096 9.29574 18.6256C9.32636 18.3736 9.67418 18.1156 10.337 17.8521Z" fill="white"/>
</g>
<defs>
<clipPath id="clip0_3204_8638">
<rect width="28" height="28" fill="white" transform="translate(4 4)"/>
</clipPath>
</defs>
</svg>
