<svg width="20" height="20" viewBox="0 0 20 20" fill="none" xmlns="http://www.w3.org/2000/svg">
<path fill-rule="evenodd" clip-rule="evenodd" d="M16.9888 13.6523C16.9953 13.6146 16.999 13.5765 17 13.5382V3.07692C17 2.48182 16.5168 2 15.92 2H5.2C4.61652 2 4.05694 2.23112 3.64436 2.64253C3.23178 3.05393 3 3.61192 3 4.19373V15.3618C3 15.9436 3.23178 16.5016 3.64436 16.913C4.05694 17.3244 4.61652 17.5556 5.2 17.5556H16.4C16.5591 17.5556 16.7117 17.4925 16.8243 17.3803C16.9368 17.2681 17 17.1159 17 16.9573C17 16.7986 16.9368 16.6464 16.8243 16.5342C16.7117 16.422 16.5591 16.359 16.4 16.359H5.2C5.06868 16.359 4.93864 16.3332 4.81732 16.2831C4.69599 16.233 4.58575 16.1595 4.49289 16.0669C4.40003 15.9743 4.32638 15.8644 4.27612 15.7434C4.22587 15.6224 4.2 15.4928 4.2 15.3618C4.2 15.2309 4.22587 15.1012 4.27612 14.9802C4.32638 14.8593 4.40003 14.7493 4.49289 14.6567C4.58575 14.5641 4.69599 14.4907 4.81732 14.4406C4.93864 14.3905 5.06868 14.3647 5.2 14.3647H16.4C16.4885 14.3646 16.5758 14.3451 16.6559 14.3075C16.7359 14.2698 16.8065 14.215 16.8628 14.1469C16.9191 14.0788 16.9596 13.9992 16.9813 13.9137C17.0031 13.8282 17.0057 13.7389 16.9888 13.6523ZM7.17574 5.36612C7.28826 5.25392 7.44087 5.19088 7.6 5.19088H12.4C12.5591 5.19088 12.7117 5.25392 12.8243 5.36612C12.9368 5.47832 13 5.6305 13 5.78917C13 5.94785 12.9368 6.10003 12.8243 6.21223C12.7117 6.32443 12.5591 6.38746 12.4 6.38746H7.6C7.44087 6.38746 7.28826 6.32443 7.17574 6.21223C7.06321 6.10003 7 5.94785 7 5.78917C7 5.6305 7.06321 5.47832 7.17574 5.36612ZM7.60244 7.29709C7.26834 7.29709 6.9975 7.56793 6.9975 7.90203C6.9975 8.23613 7.26834 8.50697 7.60244 8.50697H11.5778C11.9118 8.50697 12.1827 8.23613 12.1827 7.90203C12.1827 7.56793 11.9118 7.29709 11.5778 7.29709H7.60244Z" fill="white"/>
</svg>
