<svg width="20" height="20" viewBox="0 0 20 20" fill="none" xmlns="http://www.w3.org/2000/svg">
<path fill-rule="evenodd" clip-rule="evenodd" d="M9.22257 4.695L8.80423 4.39917C8.20726 3.9767 7.49391 3.74988 6.76257 3.75H6.25257C5.91507 3.75 5.57507 3.77083 5.25757 3.88333C3.27173 4.58833 1.9059 7.1625 2.00507 13.0025C2.02507 14.1792 2.30007 15.4792 3.36173 15.9867C3.7239 16.1608 4.12072 16.2508 4.52257 16.25C4.97423 16.2574 5.41795 16.1307 5.79757 15.8858C6.13923 15.6625 6.43923 15.3725 6.73923 15.0825C7.10923 14.7242 7.47923 14.3658 7.9259 14.1342C8.41248 13.8816 8.95268 13.7498 9.5009 13.75H11.1667C11.7151 13.75 12.2551 13.8817 12.7417 14.1333C13.1884 14.3658 13.5584 14.7242 13.9292 15.0825C14.2292 15.3725 14.5292 15.6625 14.8692 15.8858C15.1942 16.0992 15.6151 16.25 16.1451 16.25C16.5469 16.2508 16.9437 16.1608 17.3059 15.9867C18.3676 15.4792 18.6426 14.1783 18.6626 13.0025C18.7617 7.1625 17.3959 4.58833 15.4101 3.88417C15.0917 3.77083 14.7501 3.75 14.4142 3.75H13.9042C13.1728 3.75012 12.4594 3.97724 11.8626 4.4L11.4442 4.695C11.1193 4.92458 10.7312 5.04784 10.3334 5.04784C9.93556 5.04784 9.54749 4.92458 9.22257 4.695ZM14.2917 7.08333C14.4575 7.08333 14.6165 7.14918 14.7337 7.26639C14.8509 7.3836 14.9167 7.54257 14.9167 7.70833C14.9167 7.87409 14.8509 8.03306 14.7337 8.15027C14.6165 8.26749 14.4575 8.33333 14.2917 8.33333C14.126 8.33333 13.967 8.26749 13.8498 8.15027C13.7326 8.03306 13.6667 7.87409 13.6667 7.70833C13.6667 7.54257 13.7326 7.3836 13.8498 7.26639C13.967 7.14918 14.126 7.08333 14.2917 7.08333ZM6.5834 7.29167C6.74916 7.29167 6.90813 7.35752 7.02534 7.47473C7.14255 7.59194 7.2084 7.75091 7.2084 7.91667V8.54167H7.8334C7.99916 8.54167 8.15813 8.60752 8.27534 8.72473C8.39255 8.84194 8.4584 9.00091 8.4584 9.16667C8.4584 9.33243 8.39255 9.4914 8.27534 9.60861C8.15813 9.72582 7.99916 9.79167 7.8334 9.79167H7.2084V10.4167C7.2084 10.5824 7.14255 10.7414 7.02534 10.8586C6.90813 10.9758 6.74916 11.0417 6.5834 11.0417C6.41764 11.0417 6.25867 10.9758 6.14146 10.8586C6.02425 10.7414 5.9584 10.5824 5.9584 10.4167V9.79167H5.3334C5.16764 9.79167 5.00867 9.72582 4.89146 9.60861C4.77425 9.4914 4.7084 9.33243 4.7084 9.16667C4.7084 9.00091 4.77425 8.84194 4.89146 8.72473C5.00867 8.60752 5.16764 8.54167 5.3334 8.54167H5.9584V7.91667C5.9584 7.75091 6.02425 7.59194 6.14146 7.47473C6.25867 7.35752 6.41764 7.29167 6.5834 7.29167ZM16.1667 8.95833C16.1667 9.12409 16.1009 9.28306 15.9837 9.40028C15.8665 9.51749 15.7075 9.58333 15.5417 9.58333C15.376 9.58333 15.217 9.51749 15.0998 9.40028C14.9826 9.28306 14.9167 9.12409 14.9167 8.95833C14.9167 8.79257 14.9826 8.6336 15.0998 8.51639C15.217 8.39918 15.376 8.33333 15.5417 8.33333C15.7075 8.33333 15.8665 8.39918 15.9837 8.51639C16.1009 8.6336 16.1667 8.79257 16.1667 8.95833ZM13.0417 9.58333C13.2075 9.58333 13.3665 9.51749 13.4837 9.40028C13.6009 9.28306 13.6667 9.12409 13.6667 8.95833C13.6667 8.79257 13.6009 8.6336 13.4837 8.51639C13.3665 8.39918 13.2075 8.33333 13.0417 8.33333C12.876 8.33333 12.717 8.39918 12.5998 8.51639C12.4826 8.6336 12.4167 8.79257 12.4167 8.95833C12.4167 9.12409 12.4826 9.28306 12.5998 9.40028C12.717 9.51749 12.876 9.58333 13.0417 9.58333ZM14.9167 10.2083C14.9167 10.0426 14.8509 9.8836 14.7337 9.76639C14.6165 9.64918 14.4575 9.58333 14.2917 9.58333C14.126 9.58333 13.967 9.64918 13.8498 9.76639C13.7326 9.8836 13.6667 10.0426 13.6667 10.2083C13.6667 10.3741 13.7326 10.5331 13.8498 10.6503C13.967 10.7675 14.126 10.8333 14.2917 10.8333C14.4575 10.8333 14.6165 10.7675 14.7337 10.6503C14.8509 10.5331 14.9167 10.3741 14.9167 10.2083Z" fill="#222222"/>
</svg>
