<svg width="20" height="20" viewBox="0 0 20 20" fill="none" xmlns="http://www.w3.org/2000/svg">
<path d="M16.9091 3H2.59091C1.70795 3 1 3.68311 1 4.53509V13.7456C1 14.1527 1.16761 14.5432 1.46597 14.8311C1.76432 15.119 2.16897 15.2807 2.59091 15.2807H6.56818V16.8158H12.9318V15.2807H16.9091C17.331 15.2807 17.7357 15.119 18.034 14.8311C18.3324 14.5432 18.5 14.1527 18.5 13.7456V4.53509C18.5 4.12796 18.3324 3.7375 18.034 3.44962C17.7357 3.16173 17.331 3 16.9091 3ZM16.9091 13.7456H2.59091V4.53509H16.9091M12.0526 8.98684L7.90789 11.2895V6.68421" fill="white"/>
</svg>
