<svg width="20" height="20" viewBox="0 0 20 20" fill="none" xmlns="http://www.w3.org/2000/svg">
<path fill-rule="evenodd" clip-rule="evenodd" d="M9.22257 4.945L8.80423 4.64917C8.20726 4.2267 7.49391 3.99988 6.76257 4H6.25257C5.91507 4 5.57507 4.02083 5.25757 4.13333C3.27173 4.83833 1.9059 7.4125 2.00507 13.2525C2.02507 14.4292 2.30007 15.7292 3.36173 16.2367C3.7239 16.4108 4.12072 16.5008 4.52257 16.5C4.97423 16.5074 5.41795 16.3807 5.79757 16.1358C6.13923 15.9125 6.43923 15.6225 6.73923 15.3325C7.10923 14.9742 7.47923 14.6158 7.9259 14.3842C8.41248 14.1316 8.95268 13.9998 9.5009 14H11.1667C11.7151 14 12.2551 14.1317 12.7417 14.3833C13.1884 14.6158 13.5584 14.9742 13.9292 15.3325C14.2292 15.6225 14.5292 15.9125 14.8692 16.1358C15.1942 16.3492 15.6151 16.5 16.1451 16.5C16.5469 16.5008 16.9437 16.4108 17.3059 16.2367C18.3676 15.7292 18.6426 14.4283 18.6626 13.2525C18.7617 7.4125 17.3959 4.83833 15.4101 4.13417C15.0917 4.02083 14.7501 4 14.4142 4H13.9042C13.1728 4.00012 12.4594 4.22724 11.8626 4.65L11.4442 4.945C11.1193 5.17458 10.7312 5.29784 10.3334 5.29784C9.93556 5.29784 9.54749 5.17458 9.22257 4.945ZM14.2917 7.33333C14.4575 7.33333 14.6165 7.39918 14.7337 7.51639C14.8509 7.6336 14.9167 7.79257 14.9167 7.95833C14.9167 8.12409 14.8509 8.28306 14.7337 8.40027C14.6165 8.51749 14.4575 8.58333 14.2917 8.58333C14.126 8.58333 13.967 8.51749 13.8498 8.40027C13.7326 8.28306 13.6667 8.12409 13.6667 7.95833C13.6667 7.79257 13.7326 7.6336 13.8498 7.51639C13.967 7.39918 14.126 7.33333 14.2917 7.33333ZM6.5834 7.54167C6.74916 7.54167 6.90813 7.60752 7.02534 7.72473C7.14255 7.84194 7.2084 8.00091 7.2084 8.16667V8.79167H7.8334C7.99916 8.79167 8.15813 8.85752 8.27534 8.97473C8.39255 9.09194 8.4584 9.25091 8.4584 9.41667C8.4584 9.58243 8.39255 9.7414 8.27534 9.85861C8.15813 9.97582 7.99916 10.0417 7.8334 10.0417H7.2084V10.6667C7.2084 10.8324 7.14255 10.9914 7.02534 11.1086C6.90813 11.2258 6.74916 11.2917 6.5834 11.2917C6.41764 11.2917 6.25867 11.2258 6.14146 11.1086C6.02425 10.9914 5.9584 10.8324 5.9584 10.6667V10.0417H5.3334C5.16764 10.0417 5.00867 9.97582 4.89146 9.85861C4.77425 9.7414 4.7084 9.58243 4.7084 9.41667C4.7084 9.25091 4.77425 9.09194 4.89146 8.97473C5.00867 8.85752 5.16764 8.79167 5.3334 8.79167H5.9584V8.16667C5.9584 8.00091 6.02425 7.84194 6.14146 7.72473C6.25867 7.60752 6.41764 7.54167 6.5834 7.54167ZM16.1667 9.20833C16.1667 9.37409 16.1009 9.53306 15.9837 9.65028C15.8665 9.76749 15.7075 9.83333 15.5417 9.83333C15.376 9.83333 15.217 9.76749 15.0998 9.65028C14.9826 9.53306 14.9167 9.37409 14.9167 9.20833C14.9167 9.04257 14.9826 8.8836 15.0998 8.76639C15.217 8.64918 15.376 8.58333 15.5417 8.58333C15.7075 8.58333 15.8665 8.64918 15.9837 8.76639C16.1009 8.8836 16.1667 9.04257 16.1667 9.20833ZM13.0417 9.83333C13.2075 9.83333 13.3665 9.76749 13.4837 9.65028C13.6009 9.53306 13.6667 9.37409 13.6667 9.20833C13.6667 9.04257 13.6009 8.8836 13.4837 8.76639C13.3665 8.64918 13.2075 8.58333 13.0417 8.58333C12.876 8.58333 12.717 8.64918 12.5998 8.76639C12.4826 8.8836 12.4167 9.04257 12.4167 9.20833C12.4167 9.37409 12.4826 9.53306 12.5998 9.65028C12.717 9.76749 12.876 9.83333 13.0417 9.83333ZM14.9167 10.4583C14.9167 10.2926 14.8509 10.1336 14.7337 10.0164C14.6165 9.89918 14.4575 9.83333 14.2917 9.83333C14.126 9.83333 13.967 9.89918 13.8498 10.0164C13.7326 10.1336 13.6667 10.2926 13.6667 10.4583C13.6667 10.6241 13.7326 10.7831 13.8498 10.9003C13.967 11.0175 14.126 11.0833 14.2917 11.0833C14.4575 11.0833 14.6165 11.0175 14.7337 10.9003C14.8509 10.7831 14.9167 10.6241 14.9167 10.4583Z" fill="white"/>
</svg>
