<svg width="18" height="18" viewBox="0 0 18 18" fill="none" xmlns="http://www.w3.org/2000/svg">
<g opacity="0.2">
<g clip-path="url(#clip0_3975_3644)">
<path d="M9 0C9.3807 0 9.6894 0.3087 9.6894 0.6894V8.3097H17.3106C17.4936 8.3097 17.669 8.38238 17.7984 8.51175C17.9278 8.64112 18.0005 8.81659 18.0005 8.99955C18.0005 9.18251 17.9278 9.35798 17.7984 9.48735C17.669 9.61672 17.4936 9.6894 17.3106 9.6894H9.6894V17.3106C9.6894 17.4934 9.61677 17.6688 9.48748 17.7981C9.35819 17.9274 9.18284 18 9 18C8.81716 18 8.64181 17.9274 8.51252 17.7981C8.38323 17.6688 8.3106 17.4934 8.3106 17.3106L8.3097 9.6894H0.6894C0.50656 9.6894 0.331208 9.61677 0.201921 9.48748C0.072633 9.35819 0 9.18284 0 9C0 8.81716 0.072633 8.64181 0.201921 8.51252C0.331208 8.38323 0.50656 8.3106 0.6894 8.3106L8.3097 8.3097V0.6894C8.31018 0.50655 8.38309 0.331339 8.51247 0.202128C8.64184 0.0729181 8.81715 0.000237467 9 0Z" fill="white"/>
</g>
</g>
<defs>
<clipPath id="clip0_3975_3644">
<rect width="18" height="18" fill="white"/>
</clipPath>
</defs>
</svg>
