<svg width="18" height="19" viewBox="0 0 18 19" fill="none" xmlns="http://www.w3.org/2000/svg">
<path d="M8.625 3.5C7.92881 3.5 7.26113 3.77656 6.76885 4.26884C6.27656 4.76113 6 5.42881 6 6.125C6 6.82119 6.27656 7.48887 6.76885 7.98116C7.26113 8.47344 7.92881 8.75 8.625 8.75C9.32119 8.75 9.98887 8.47344 10.4812 7.98116C10.9734 7.48887 11.25 6.82119 11.25 6.125C11.25 5.42881 10.9734 4.76113 10.4812 4.26884C9.98887 3.77656 9.32119 3.5 8.625 3.5ZM4.5 6.125C4.5 5.03098 4.9346 3.98177 5.70818 3.20818C6.48177 2.4346 7.53098 2 8.625 2C9.71902 2 10.7682 2.4346 11.5418 3.20818C12.3154 3.98177 12.75 5.03098 12.75 6.125C12.75 7.21902 12.3154 8.26823 11.5418 9.04182C10.7682 9.8154 9.71902 10.25 8.625 10.25C7.53098 10.25 6.48177 9.8154 5.70818 9.04182C4.9346 8.26823 4.5 7.21902 4.5 6.125ZM6 12.5C5.20435 12.5 4.44129 12.8161 3.87868 13.3787C3.31607 13.9413 3 14.7044 3 15.5H9.0375V17H1.5V15.5C1.5 14.3065 1.97411 13.1619 2.81802 12.318C3.66193 11.4741 4.80653 11 6 11H9V12.5H6ZM14.625 10.0625V11.0945C15.1613 11.2325 15.639 11.5145 16.0155 11.8985L16.9103 11.3818L17.6603 12.6807L16.7663 13.1968C16.9123 13.7223 16.9123 14.2777 16.7663 14.8032L17.6603 15.3193L16.9103 16.6182L16.0155 16.1015C15.6337 16.4909 15.153 16.7689 14.625 16.9055V17.9375H13.125V16.9055C12.597 16.7689 12.1163 16.4909 11.7345 16.1015L10.8398 16.6182L10.0898 15.3193L10.9838 14.8032C10.8377 14.2777 10.8377 13.7223 10.9838 13.1968L10.0898 12.6807L10.8398 11.3818L11.7345 11.8977C12.1164 11.5086 12.5971 11.2309 13.125 11.0945V10.0625H14.625ZM12.5618 13.2748C12.4389 13.4968 12.3744 13.7463 12.3743 14C12.3743 14.2625 12.4425 14.51 12.5618 14.7252L12.5888 14.7725C12.722 14.9946 12.9105 15.1784 13.1359 15.3061C13.3614 15.4337 13.616 15.5008 13.875 15.5008C14.134 15.5008 14.3886 15.4337 14.6141 15.3061C14.8395 15.1784 15.028 14.9946 15.1613 14.7725L15.1883 14.7252C15.3075 14.51 15.375 14.2633 15.375 14C15.375 13.7375 15.3075 13.49 15.1883 13.2748L15.1613 13.2275C15.028 13.0054 14.8395 12.8216 14.6141 12.6939C14.3886 12.5663 14.134 12.4992 13.875 12.4992C13.616 12.4992 13.3614 12.5663 13.1359 12.6939C12.9105 12.8216 12.722 13.0054 12.5888 13.2275L12.5618 13.2748Z" fill="white"/>
</svg>
