<svg width="134" height="134" viewBox="0 0 134 134" fill="none" xmlns="http://www.w3.org/2000/svg">
<circle cx="67" cy="67" r="67" fill="white"/>
<mask id="mask0_920_702" style="mask-type:alpha" maskUnits="userSpaceOnUse" x="23" y="23" width="89" height="89">
<rect x="23" y="23" width="88.5357" height="88.5357" fill="#D9D9D9"/>
</mask>
<g mask="url(#mask0_920_702)">
<path d="M67.2675 67.267C63.2096 67.267 59.7358 65.8222 56.8461 62.9325C53.9564 60.0428 52.5116 56.569 52.5116 52.5111C52.5116 48.4532 53.9564 44.9794 56.8461 42.0897C59.7358 39.2 63.2096 37.7551 67.2675 37.7551C71.3254 37.7551 74.7992 39.2 77.6889 42.0897C80.5786 44.9794 82.0235 48.4532 82.0235 52.5111C82.0235 56.569 80.5786 60.0428 77.6889 62.9325C74.7992 65.8222 71.3254 67.267 67.2675 67.267ZM37.7556 96.7789V86.4498C37.7556 84.3593 38.2936 82.438 39.3695 80.6857C40.4455 78.9335 41.875 77.5962 43.658 76.674C47.47 74.768 51.3434 73.3385 55.2783 72.3855C59.2132 71.4325 63.2096 70.956 67.2675 70.956C71.3254 70.956 75.3218 71.4325 79.2567 72.3855C83.1917 73.3385 87.0651 74.768 90.8771 76.674C92.6601 77.5962 94.0895 78.9335 95.1655 80.6857C96.2415 82.438 96.7794 84.3593 96.7794 86.4498V96.7789H37.7556ZM45.1336 89.401H89.4015V86.4498C89.4015 85.7735 89.2324 85.1586 88.8942 84.6053C88.5561 84.0519 88.1103 83.6216 87.557 83.3141C84.2369 81.6541 80.886 80.4091 77.5045 79.579C74.1229 78.749 70.7106 78.334 67.2675 78.334C63.8245 78.334 60.4122 78.749 57.0306 79.579C53.649 80.4091 50.2982 81.6541 46.9781 83.3141C46.4247 83.6216 45.979 84.0519 45.6408 84.6053C45.3027 85.1586 45.1336 85.7735 45.1336 86.4498V89.401ZM67.2675 59.8891C69.2965 59.8891 71.0334 59.1666 72.4782 57.7218C73.9231 56.2769 74.6455 54.54 74.6455 52.5111C74.6455 50.4821 73.9231 48.7452 72.4782 47.3004C71.0334 45.8555 69.2965 45.1331 67.2675 45.1331C65.2386 45.1331 63.5017 45.8555 62.0568 47.3004C60.612 48.7452 59.8895 50.4821 59.8895 52.5111C59.8895 54.54 60.612 56.2769 62.0568 57.7218C63.5017 59.1666 65.2386 59.8891 67.2675 59.8891Z" fill="#020E1C"/>
</g>
</svg>
