<svg width="30" height="30" viewBox="0 0 30 30" fill="none" xmlns="http://www.w3.org/2000/svg">
<path d="M25.0497 4.81824H4.22323C2.93893 4.81824 1.90918 5.81186 1.90918 7.05109V20.4482C1.90918 21.0404 2.15298 21.6083 2.58695 22.0271C3.02092 22.4458 3.60951 22.6811 4.22323 22.6811H10.0084V24.9139H19.2646V22.6811H25.0497C25.6634 22.6811 26.252 22.4458 26.686 22.0271C27.1199 21.6083 27.3637 21.0404 27.3637 20.4482V7.05109C27.3637 6.4589 27.1199 5.89097 26.686 5.47223C26.252 5.05348 25.6634 4.81824 25.0497 4.81824ZM25.0497 20.4482H4.22323V7.05109H25.0497M17.9857 13.5264L11.957 16.8757V10.1771" fill="white"/>
</svg>
