<svg width="20" height="20" viewBox="0 0 20 20" fill="none" xmlns="http://www.w3.org/2000/svg">
<path d="M12.9167 0.833252H6.25002C5.69749 0.833252 5.16758 1.05275 4.77688 1.44345C4.38618 1.83415 4.16669 2.36405 4.16669 2.91659V17.0833C4.16669 17.6358 4.38618 18.1657 4.77688 18.5564C5.16758 18.9471 5.69749 19.1666 6.25002 19.1666H12.9167C13.4692 19.1666 13.9991 18.9471 14.3898 18.5564C14.7805 18.1657 15 17.6358 15 17.0833V2.91659C15 2.36405 14.7805 1.83415 14.3898 1.44345C13.9991 1.05275 13.4692 0.833252 12.9167 0.833252ZM9.58335 18.3333C8.89169 18.3333 8.33335 17.7749 8.33335 17.0833C8.33335 16.3916 8.89169 15.8333 9.58335 15.8333C10.275 15.8333 10.8334 16.3916 10.8334 17.0833C10.8334 17.7749 10.275 18.3333 9.58335 18.3333ZM13.3334 14.9999H5.83335V3.33325H13.3334V14.9999Z" fill="white"/>
</svg>
