<svg width="20" height="20" viewBox="0 0 20 20" fill="none" xmlns="http://www.w3.org/2000/svg">
<path d="M18.2125 5.21997C18.0569 4.35735 17.6385 3.56392 17.0145 2.94839C16.3904 2.33286 15.5913 1.92533 14.7267 1.78163C14.1282 1.72411 13.5266 1.70713 12.9258 1.7308C12.1042 1.7308 11.4192 1.7408 11.4092 1.75413C11.3992 1.76747 11.385 5.47663 11.385 10.0041C11.385 17.4733 11.385 18.23 11.4392 18.2541C11.5317 18.2883 14.1892 18.2741 14.5225 18.24C15.2122 18.1583 15.8716 17.9098 16.4437 17.5161C17.0158 17.1223 17.4833 16.595 17.8058 15.98C17.9046 15.7861 17.9906 15.5859 18.0633 15.3808C18.2783 14.7366 18.2717 14.9083 18.2717 9.98747C18.2675 6.0558 18.2608 5.46997 18.2125 5.21997ZM16.2125 11.37C16.0974 11.7039 15.8789 11.9924 15.5887 12.1936C15.2985 12.3948 14.9516 12.4983 14.5986 12.489C14.2456 12.4798 13.9047 12.3582 13.6254 12.1419C13.3462 11.9257 13.1432 11.6261 13.0458 11.2866C12.9697 10.9689 12.9743 10.6372 13.0592 10.3216C13.1638 9.98795 13.3712 9.69584 13.6517 9.48698C13.9322 9.27812 14.2715 9.16318 14.6211 9.15856C14.9708 9.15394 15.313 9.25988 15.599 9.46126C15.8849 9.66263 16.0999 9.94916 16.2133 10.28C16.326 10.6346 16.3251 11.0154 16.2125 11.37ZM5.56665 5.1583C5.30331 5.22335 5.05769 5.34602 4.84749 5.51747C4.6683 5.6748 4.52873 5.87218 4.44012 6.09356C4.35151 6.31495 4.31634 6.55411 4.33749 6.79163C4.33235 6.98809 4.38074 7.18224 4.47749 7.3533C4.6312 7.67695 4.8912 7.93813 5.21415 8.0933C5.39138 8.19409 5.59394 8.24155 5.79749 8.22997C5.98325 8.25023 6.17119 8.22859 6.34749 8.16663C6.70104 8.05676 7.00342 7.82364 7.19963 7.50967C7.39584 7.19571 7.47285 6.82175 7.41665 6.4558C7.38326 6.24777 7.30846 6.04854 7.19669 5.86994C7.08491 5.69133 6.93844 5.53696 6.76594 5.41597C6.59343 5.29499 6.39841 5.20985 6.19241 5.16559C5.98641 5.12133 5.77363 5.11885 5.56665 5.1583ZM7.60749 1.73413C6.82935 1.7107 6.05053 1.72767 5.27415 1.78497C4.47057 1.92676 3.72435 2.29557 3.12364 2.84784C2.52294 3.40012 2.09284 4.11277 1.88415 4.90163C1.73332 5.47997 1.72332 5.8183 1.73999 10.3083C1.74999 14.4316 1.75415 14.5275 1.82332 14.8458C1.9914 15.6678 2.39672 16.4225 2.98915 17.0165C3.58158 17.6106 4.33515 18.018 5.15665 18.1883C5.94215 18.2745 6.73322 18.2984 7.52249 18.26C8.24378 18.3321 8.97109 18.3184 9.68915 18.2191C9.73999 18.1675 9.74332 17.5066 9.74332 10.0141C9.74332 4.45997 9.73332 1.84747 9.70915 1.7958C9.67249 1.73413 9.61415 1.7308 7.60749 1.73413ZM8.37165 9.99997V16.9416L6.97749 16.9241C6.41698 16.9614 5.85404 16.9335 5.29999 16.8408C4.76645 16.7088 4.28124 16.4283 3.90058 16.0319C3.51991 15.6355 3.25937 15.1393 3.14915 14.6008C3.07415 14.255 3.07415 5.73497 3.14915 5.39663C3.24764 4.92535 3.4603 4.48544 3.76848 4.11551C4.07665 3.74559 4.47091 3.45697 4.91665 3.27497C5.60162 3.05142 6.32735 2.98115 7.04249 3.06913H8.36832L8.37165 9.99997Z" fill="white"/>
</svg>
