<svg width="20" height="20" viewBox="0 0 20 20" fill="none" xmlns="http://www.w3.org/2000/svg">
<g clip-path="url(#clip0_1851_3107)">
<path d="M19.8225 14.3138C19.4313 14.8075 18.4738 15.1587 18.4738 15.1587L11.3538 17.7163V15.83L16.5938 13.9637C17.1888 13.7512 17.28 13.4488 16.7963 13.2913C16.3138 13.1325 15.44 13.1788 14.8463 13.3913L11.3538 14.6212V12.6637L11.555 12.5962C11.555 12.5962 12.5638 12.2387 13.9825 12.0812C15.4013 11.925 17.1388 12.1025 18.5025 12.6188C20.04 13.1063 20.2125 13.8213 19.8225 14.3138ZM12.0313 11.1038V6.27875C12.0313 5.7125 11.9275 5.19125 11.3963 5.04375C10.9888 4.9125 10.7363 5.29125 10.7363 5.85625V17.9362L7.47876 16.9025V2.5C8.86376 2.7575 10.8813 3.365 11.9663 3.73125C14.725 4.6775 15.66 5.85625 15.66 8.5125C15.66 11.1013 14.0625 12.0825 12.0313 11.1025V11.1038ZM1.50126 15.635C-0.0762429 15.1875 -0.338743 14.2625 0.380007 13.73C1.04501 13.2375 2.17501 12.8675 2.17501 12.8675L6.84626 11.205V13.0988L3.48376 14.3025C2.89126 14.515 2.80001 14.8162 3.28251 14.975C3.76501 15.1325 4.63876 15.0875 5.23251 14.875L6.84501 14.2887V15.9837L6.52376 16.0375C4.84153 16.3101 3.11834 16.1715 1.50126 15.6337V15.635Z" fill="white"/>
</g>
<defs>
<clipPath id="clip0_1851_3107">
<rect width="20" height="20" fill="white"/>
</clipPath>
</defs>
</svg>
