<svg width="20" height="20" viewBox="0 0 20 20" fill="none" xmlns="http://www.w3.org/2000/svg">
<path d="M9.20202 17.967C7.93458 17.8359 6.7168 17.4039 5.65005 16.707C4.75206 16.122 4.54906 15.881 4.54906 15.401C4.54906 14.436 5.61105 12.7449 7.42803 10.8179C8.45903 9.72289 9.89701 8.43987 10.052 8.47487C10.354 8.54287 12.77 10.8979 13.674 12.0059C15.104 13.759 15.762 15.195 15.428 15.835C15.174 16.321 13.598 17.272 12.441 17.637C11.487 17.938 10.234 18.066 9.20202 17.967ZM3.33607 14.397C2.58908 13.253 2.21208 12.1269 2.03008 10.4969C1.97008 9.9579 1.99208 9.65089 2.16708 8.54687C2.38508 7.16985 3.16907 5.57682 4.11206 4.5968C4.51306 4.1798 4.54906 4.1698 5.03806 4.3338C5.63305 4.5338 6.26805 4.97181 7.25104 5.86183L7.82503 6.38084L7.51203 6.76584C6.05605 8.55287 4.52006 11.0859 3.94007 12.6529C3.62507 13.505 3.49807 14.36 3.63407 14.716C3.72507 14.956 3.64107 14.866 3.33407 14.397H3.33607ZM16.437 14.592C16.511 14.232 16.418 13.572 16.199 12.9049C15.726 11.4619 14.144 8.77688 12.691 6.95185L12.234 6.37684L12.728 5.92283C13.374 5.32982 13.823 4.97481 14.308 4.67281C14.689 4.4358 15.235 4.2248 15.469 4.2248C15.614 4.2248 16.123 4.75281 16.534 5.32882C17.1872 6.26115 17.6441 7.31653 17.8769 8.43087C18.0299 9.15888 18.0429 10.7169 17.9009 11.4429C17.7676 12.0932 17.5665 12.7276 17.3009 13.336C17.1219 13.729 16.677 14.492 16.481 14.74C16.381 14.868 16.38 14.867 16.437 14.592ZM9.33502 3.95179C8.66502 3.61179 7.63103 3.24678 7.05904 3.14878C6.80798 3.11038 6.55383 3.09598 6.30005 3.10578C5.82905 3.12978 5.85005 3.10578 6.60604 2.74777C7.19876 2.46337 7.82505 2.25505 8.47003 2.12776C9.27002 1.95876 10.776 1.95776 11.564 2.12276C12.414 2.30277 13.417 2.67477 13.982 3.02278L14.15 3.12578L13.765 3.10578C12.999 3.06778 11.885 3.37578 10.687 3.95879C10.326 4.1348 10.011 4.2748 9.98801 4.2708C9.76684 4.1711 9.54974 4.06472 9.33502 3.95179Z" fill="white"/>
</svg>
