<svg width="18" height="18" viewBox="0 0 18 18" fill="none" xmlns="http://www.w3.org/2000/svg">
<path d="M16.4886 7.30504L16.4826 7.23904C16.4161 6.29342 15.9941 5.40803 15.3015 4.76079C14.6089 4.11355 13.697 3.75244 12.7491 3.75004H5.24907C4.28782 3.74569 3.36206 4.11287 2.6651 4.77489C1.96814 5.43691 1.55388 6.34259 1.50882 7.30279C1.50182 7.36129 1.49857 7.42454 1.49907 7.49254V12.375C1.49907 13.0688 1.77882 13.746 2.26557 14.232C2.7595 14.7232 3.42751 14.9992 4.12407 15C5.47407 15 6.00207 14.25 6.74907 12.75C6.85857 12.531 7.49307 11.25 8.99907 11.25C10.4961 11.25 11.1388 12.5303 11.2491 12.75C12.0021 14.25 12.5241 15 13.8741 15C14.5678 15 15.2451 14.7203 15.7311 14.2335C16.2222 13.7396 16.4983 13.0716 16.4991 12.375V7.50004C16.4991 7.42954 16.4956 7.36454 16.4886 7.30504ZM5.24907 9.02329C5.04932 9.02781 4.85068 8.99237 4.6648 8.91906C4.47893 8.84575 4.30958 8.73605 4.16669 8.59639C4.0238 8.45673 3.91026 8.28993 3.83272 8.10578C3.75518 7.92163 3.71521 7.72385 3.71516 7.52405C3.71511 7.32424 3.75498 7.12644 3.83243 6.94225C3.90987 6.75807 4.02334 6.59121 4.16616 6.45148C4.30898 6.31175 4.47827 6.20196 4.66411 6.12856C4.84994 6.05516 5.04857 6.01962 5.24832 6.02404C5.64024 6.0327 6.0132 6.19446 6.28735 6.47467C6.5615 6.75488 6.71506 7.13128 6.71516 7.5233C6.71526 7.91531 6.56189 8.29179 6.28788 8.57214C6.01386 8.85249 5.64099 9.01443 5.24907 9.02329ZM12.7491 5.27329C12.948 5.27329 13.1388 5.35231 13.2794 5.49296C13.4201 5.63361 13.4991 5.82438 13.4991 6.02329C13.4991 6.2222 13.4201 6.41297 13.2794 6.55362C13.1388 6.69427 12.948 6.77329 12.7491 6.77329C12.5502 6.77329 12.3594 6.69427 12.2187 6.55362C12.0781 6.41297 11.9991 6.2222 11.9991 6.02329C11.9991 5.82438 12.0781 5.63361 12.2187 5.49296C12.3594 5.35231 12.5502 5.27329 12.7491 5.27329ZM11.2491 8.27329C11.0502 8.27329 10.8594 8.19427 10.7187 8.05362C10.5781 7.91297 10.4991 7.7222 10.4991 7.52329C10.4991 7.32438 10.5781 7.13361 10.7187 6.99296C10.8594 6.85231 11.0502 6.77329 11.2491 6.77329C11.448 6.77329 11.6388 6.85231 11.7794 6.99296C11.9201 7.13361 11.9991 7.32438 11.9991 7.52329C11.9991 7.7222 11.9201 7.91297 11.7794 8.05362C11.6388 8.19427 11.448 8.27329 11.2491 8.27329ZM12.7491 9.77329C12.5502 9.77329 12.3594 9.69427 12.2187 9.55362C12.0781 9.41297 11.9991 9.2222 11.9991 9.02329C11.9991 8.82438 12.0781 8.63361 12.2187 8.49296C12.3594 8.35231 12.5502 8.27329 12.7491 8.27329C12.948 8.27329 13.1388 8.35231 13.2794 8.49296C13.4201 8.63361 13.4991 8.82438 13.4991 9.02329C13.4991 9.2222 13.4201 9.41297 13.2794 9.55362C13.1388 9.69427 12.948 9.77329 12.7491 9.77329ZM14.2491 8.27329C14.0502 8.27329 13.8594 8.19427 13.7187 8.05362C13.5781 7.91297 13.4991 7.7222 13.4991 7.52329C13.4991 7.32438 13.5781 7.13361 13.7187 6.99296C13.8594 6.85231 14.0502 6.77329 14.2491 6.77329C14.448 6.77329 14.6388 6.85231 14.7794 6.99296C14.9201 7.13361 14.9991 7.32438 14.9991 7.52329C14.9991 7.7222 14.9201 7.91297 14.7794 8.05362C14.6388 8.19427 14.448 8.27329 14.2491 8.27329Z" fill="white"/>
</svg>
