<svg width="24" height="19" viewBox="0 0 24 19" fill="none" xmlns="http://www.w3.org/2000/svg">
<path d="M21.9861 6.70435L21.9781 6.61635C21.8894 5.35553 21.3268 4.17499 20.4033 3.31201C19.4799 2.44902 18.264 1.96755 17.0001 1.96435H7.00007C5.7184 1.95855 4.48404 2.44812 3.55477 3.33081C2.62549 4.21351 2.07314 5.42107 2.01307 6.70135C2.00373 6.77935 1.9994 6.86368 2.00007 6.95435V13.4643C2.00007 14.3893 2.37307 15.2923 3.02207 15.9403C3.68063 16.5952 4.57132 16.9633 5.50007 16.9643C7.30007 16.9643 8.00407 15.9643 9.00007 13.9643C9.14607 13.6723 9.99207 11.9643 12.0001 11.9643C13.9961 11.9643 14.8531 13.6713 15.0001 13.9643C16.0041 15.9643 16.7001 16.9643 18.5001 16.9643C19.4251 16.9643 20.3281 16.5913 20.9761 15.9423C21.6309 15.2838 21.999 14.3931 22.0001 13.4643V6.96435C22.0001 6.87035 21.9954 6.78368 21.9861 6.70435ZM7.00007 8.99535C6.73373 9.00137 6.46887 8.95412 6.22104 8.85637C5.97321 8.75863 5.74741 8.61236 5.55689 8.42614C5.36637 8.23993 5.21498 8.01753 5.11159 7.772C5.00821 7.52647 4.95492 7.26276 4.95485 6.99636C4.95478 6.72995 5.00794 6.46621 5.11121 6.22063C5.21447 5.97505 5.36575 5.75258 5.55618 5.56627C5.7466 5.37996 5.97233 5.23358 6.22011 5.13571C6.46789 5.03784 6.73273 4.99046 6.99907 4.99634C7.52163 5.0079 8.0189 5.22357 8.38444 5.59718C8.74997 5.9708 8.95472 6.47267 8.95485 6.99536C8.95498 7.51805 8.75048 8.02002 8.38514 8.39381C8.01979 8.76761 7.52262 8.98353 7.00007 8.99535ZM17.0001 3.99535C17.2653 3.99535 17.5196 4.1007 17.7072 4.28824C17.8947 4.47577 18.0001 4.73013 18.0001 4.99535C18.0001 5.26056 17.8947 5.51492 17.7072 5.70245C17.5196 5.88999 17.2653 5.99535 17.0001 5.99535C16.7348 5.99535 16.4805 5.88999 16.293 5.70245C16.1054 5.51492 16.0001 5.26056 16.0001 4.99535C16.0001 4.73013 16.1054 4.47577 16.293 4.28824C16.4805 4.1007 16.7348 3.99535 17.0001 3.99535ZM15.0001 7.99535C14.7348 7.99535 14.4805 7.88999 14.293 7.70245C14.1054 7.51492 14.0001 7.26056 14.0001 6.99535C14.0001 6.73013 14.1054 6.47578 14.293 6.28824C14.4805 6.1007 14.7348 5.99535 15.0001 5.99535C15.2653 5.99535 15.5196 6.1007 15.7072 6.28824C15.8947 6.47578 16.0001 6.73013 16.0001 6.99535C16.0001 7.26056 15.8947 7.51492 15.7072 7.70245C15.5196 7.88999 15.2653 7.99535 15.0001 7.99535ZM17.0001 9.99535C16.7348 9.99535 16.4805 9.88999 16.293 9.70245C16.1054 9.51492 16.0001 9.26056 16.0001 8.99535C16.0001 8.73013 16.1054 8.47578 16.293 8.28824C16.4805 8.1007 16.7348 7.99535 17.0001 7.99535C17.2653 7.99535 17.5196 8.1007 17.7072 8.28824C17.8947 8.47578 18.0001 8.73013 18.0001 8.99535C18.0001 9.26056 17.8947 9.51492 17.7072 9.70245C17.5196 9.88999 17.2653 9.99535 17.0001 9.99535ZM19.0001 7.99535C18.7348 7.99535 18.4805 7.88999 18.293 7.70245C18.1054 7.51492 18.0001 7.26056 18.0001 6.99535C18.0001 6.73013 18.1054 6.47578 18.293 6.28824C18.4805 6.1007 18.7348 5.99535 19.0001 5.99535C19.2653 5.99535 19.5196 6.1007 19.7072 6.28824C19.8947 6.47578 20.0001 6.73013 20.0001 6.99535C20.0001 7.26056 19.8947 7.51492 19.7072 7.70245C19.5196 7.88999 19.2653 7.99535 19.0001 7.99535Z" fill="white"/>
</svg>
