<svg width="18" height="19" viewBox="0 0 18 19" fill="none" xmlns="http://www.w3.org/2000/svg">
<path d="M3.16132 3.48389L14.3914 14.7139L13.527 15.5776L11.2389 13.2889L8.77603 15.7566L3.59745 10.5695C2.99531 9.89418 2.66423 9.02003 2.66796 8.11528C2.67168 7.21053 3.00993 6.33913 3.6176 5.66881L2.29761 4.34821L3.16132 3.48389ZM13.8111 5.53871C14.4728 6.20035 14.8564 7.09005 14.8832 8.02543C14.91 8.96082 14.578 9.87103 13.9552 10.5695L12.9565 11.5688L5.88072 4.49358C6.40011 4.42904 6.92731 4.47648 7.42683 4.63274C7.92635 4.78899 8.38661 5.05042 8.77664 5.39944C9.47469 4.77496 10.3853 4.44143 11.3216 4.46733C12.2578 4.49323 13.1486 4.8766 13.8111 5.53871Z" fill="#FF4949"/>
</svg>
