<svg width="18" height="19" viewBox="0 0 18 19" fill="none" xmlns="http://www.w3.org/2000/svg">
<path d="M16.6256 7.80149L16.6195 7.73429C16.5517 6.77148 16.1221 5.86999 15.4169 5.21098C14.7117 4.55198 13.7833 4.18431 12.8181 4.18186H5.18175C4.20302 4.17744 3.26043 4.55129 2.5508 5.22534C1.84117 5.8994 1.41938 6.82154 1.3735 7.7992C1.36638 7.85876 1.36307 7.92316 1.36358 7.9924V12.9637C1.36358 13.67 1.64841 14.3596 2.14401 14.8544C2.64691 15.3545 3.32707 15.6356 4.03629 15.6364C5.41084 15.6364 5.94843 14.8727 6.70901 13.3455C6.8205 13.1225 7.46654 11.8182 8.99991 11.8182C10.5241 11.8182 11.1786 13.1217 11.2908 13.3455C12.0575 14.8727 12.589 15.6364 13.9635 15.6364C14.6699 15.6364 15.3595 15.3515 15.8543 14.8559C16.3544 14.353 16.6354 13.6729 16.6363 12.9637V8.00003C16.6363 7.92825 16.6327 7.86207 16.6256 7.80149ZM5.18175 9.55097C4.97836 9.55557 4.77611 9.51949 4.58686 9.44485C4.39761 9.37021 4.22518 9.25851 4.07969 9.11631C3.9342 8.97411 3.81859 8.80428 3.73964 8.61679C3.66069 8.42929 3.62 8.22791 3.61995 8.02448C3.6199 7.82104 3.66049 7.61964 3.73935 7.43211C3.8182 7.24458 3.93373 7.07469 4.07914 6.93241C4.22456 6.79014 4.39693 6.67836 4.58615 6.60362C4.77536 6.52888 4.97759 6.4927 5.18098 6.4972C5.58003 6.50602 5.95976 6.67072 6.2389 6.95602C6.51803 7.24133 6.67439 7.62457 6.67448 8.02371C6.67458 8.42286 6.51842 8.80618 6.23943 9.09162C5.96044 9.37707 5.58079 9.54195 5.18175 9.55097ZM12.8181 5.7328C13.0206 5.7328 13.2148 5.81326 13.3581 5.95647C13.5013 6.09967 13.5817 6.29391 13.5817 6.49644C13.5817 6.69896 13.5013 6.8932 13.3581 7.03641C13.2148 7.17962 13.0206 7.26007 12.8181 7.26007C12.6156 7.26007 12.4213 7.17962 12.2781 7.03641C12.1349 6.8932 12.0544 6.69896 12.0544 6.49644C12.0544 6.29391 12.1349 6.09967 12.2781 5.95647C12.4213 5.81326 12.6156 5.7328 12.8181 5.7328ZM11.2908 8.78734C11.0883 8.78734 10.8941 8.70688 10.7508 8.56367C10.6076 8.42047 10.5272 8.22623 10.5272 8.0237C10.5272 7.82118 10.6076 7.62694 10.7508 7.48373C10.8941 7.34052 11.0883 7.26007 11.2908 7.26007C11.4933 7.26007 11.6876 7.34052 11.8308 7.48373C11.974 7.62694 12.0544 7.82118 12.0544 8.0237C12.0544 8.22623 11.974 8.42047 11.8308 8.56367C11.6876 8.70688 11.4933 8.78734 11.2908 8.78734ZM12.8181 10.3146C12.6156 10.3146 12.4213 10.2342 12.2781 10.0909C12.1349 9.94773 12.0544 9.7535 12.0544 9.55097C12.0544 9.34844 12.1349 9.15421 12.2781 9.011C12.4213 8.86779 12.6156 8.78734 12.8181 8.78734C13.0206 8.78734 13.2148 8.86779 13.3581 9.011C13.5013 9.15421 13.5817 9.34844 13.5817 9.55097C13.5817 9.7535 13.5013 9.94773 13.3581 10.0909C13.2148 10.2342 13.0206 10.3146 12.8181 10.3146ZM14.3454 8.78734C14.1428 8.78734 13.9486 8.70688 13.8054 8.56367C13.6622 8.42047 13.5817 8.22623 13.5817 8.0237C13.5817 7.82118 13.6622 7.62694 13.8054 7.48373C13.9486 7.34052 14.1428 7.26007 14.3454 7.26007C14.5479 7.26007 14.7421 7.34052 14.8853 7.48373C15.0285 7.62694 15.109 7.82118 15.109 8.0237C15.109 8.22623 15.0285 8.42047 14.8853 8.56367C14.7421 8.70688 14.5479 8.78734 14.3454 8.78734Z" fill="#15B000"/>
</svg>
