<svg width="38" height="38" viewBox="0 0 38 38" fill="none" xmlns="http://www.w3.org/2000/svg">
<g clip-path="url(#clip0_3794_5894)">
<path d="M18.9995 0C13.9615 0 9.12545 2.00302 5.56592 5.56492C2.00274 9.12826 0.000531332 13.9608 -0.000488281 19C-0.000488281 24.0371 2.00342 28.8732 5.56592 32.4351C9.12545 35.997 13.9615 38 18.9995 38C24.0375 38 28.8736 35.997 32.4331 32.4351C35.9956 28.8732 37.9995 24.0371 37.9995 19C37.9995 13.9629 35.9956 9.12683 32.4331 5.56492C28.8736 2.00302 24.0375 0 18.9995 0Z" fill="url(#paint0_linear_3794_5894)"/>
<path d="M8.60034 18.7993C14.14 16.3863 17.8332 14.7955 19.6797 14.0268C24.9582 11.832 26.0536 11.4508 26.7691 11.4379C26.9264 11.4353 27.2767 11.4742 27.5053 11.659C27.6953 11.8149 27.7488 12.0257 27.7755 12.1737C27.7992 12.3215 27.8319 12.6585 27.8052 12.9215C27.5202 15.9259 26.2822 23.2165 25.6528 26.5816C25.3886 28.0054 24.8632 28.4828 24.3555 28.5294C23.2511 28.6309 22.4139 27.8003 21.3452 27.0999C19.6738 26.0036 18.7297 25.3214 17.1058 24.2517C15.2296 23.0155 16.4467 22.336 17.5155 21.2257C17.7946 20.935 22.6574 16.5131 22.7494 16.112C22.7613 16.0618 22.7732 15.8748 22.6603 15.7762C22.5505 15.6774 22.3872 15.7112 22.2685 15.7379C22.0992 15.7759 19.4303 17.5418 14.2528 21.0351C13.4958 21.5558 12.81 21.8096 12.1925 21.7963C11.5157 21.7817 10.2094 21.4127 9.23862 21.0974C8.05112 20.7106 7.10409 20.5061 7.18721 19.8491C7.22878 19.5071 7.70081 19.1571 8.60034 18.7993Z" fill="white"/>
</g>
<defs>
<linearGradient id="paint0_linear_3794_5894" x1="1900" y1="0" x2="1900" y2="3800" gradientUnits="userSpaceOnUse">
<stop stop-color="#2AABEE"/>
<stop offset="1" stop-color="#229ED9"/>
</linearGradient>
<clipPath id="clip0_3794_5894">
<rect width="38" height="38" fill="white"/>
</clipPath>
</defs>
</svg>
