<svg width="28" height="28" viewBox="0 0 28 28" fill="none" xmlns="http://www.w3.org/2000/svg">
<g clip-path="url(#clip0_2891_5579)">
<path d="M17.3256 4.86221C17.8656 4.55063 18.4821 4.39671 19.1052 4.41795C19.7282 4.43919 20.3328 4.63473 20.8503 4.98235C21.3678 5.32998 21.7775 5.81577 22.0327 6.38453C22.288 6.9533 22.3786 7.58224 22.2943 8.19994C22.2101 8.81763 21.9543 9.39932 21.556 9.87892C21.1577 10.3585 20.6329 10.7168 20.0412 10.9131C19.4495 11.1094 18.8146 11.1359 18.2086 10.9894C17.6027 10.843 17.0499 10.5295 16.6131 10.0847L11.3798 13.1064C11.5421 13.6909 11.5421 14.3085 11.3798 14.893L16.6131 17.9147C17.1822 17.3376 17.9419 16.9875 18.7503 16.9298C19.5587 16.8721 20.3604 17.1107 21.0057 17.6011C21.6509 18.0915 22.0955 18.8 22.2564 19.5944C22.4173 20.3887 22.2834 21.2144 21.8798 21.9172C21.4748 22.6212 20.8268 23.1532 20.0574 23.4131C19.288 23.6731 18.4501 23.6432 17.7011 23.3291C16.9522 23.015 16.3437 22.4383 15.9899 21.7072C15.6361 20.9762 15.5614 20.1411 15.7798 19.3589L10.5465 16.3364C10.0825 16.8088 9.48838 17.1325 8.83982 17.2661C8.19126 17.3997 7.5176 17.3372 6.90468 17.0866C6.29176 16.836 5.76732 16.4086 5.39818 15.8588C5.02904 15.3091 4.83191 14.6619 4.83191 13.9997C4.83191 13.3375 5.02904 12.6903 5.39818 12.1406C5.76732 11.5908 6.29176 11.1634 6.90468 10.9128C7.5176 10.6622 8.19126 10.5997 8.83982 10.7333C9.48838 10.8669 10.0825 11.1906 10.5465 11.663L15.7798 8.64137C15.5823 7.9292 15.627 7.17161 15.9067 6.48757C16.1865 5.80354 16.6856 5.23182 17.3256 4.86221ZM20.4356 6.91637C20.327 6.7253 20.1816 6.5576 20.0079 6.42293C19.8342 6.28826 19.6356 6.18928 19.4234 6.13169C19.2113 6.0741 18.9899 6.05904 18.7719 6.08737C18.554 6.1157 18.3438 6.18687 18.1534 6.29677C17.9631 6.40667 17.7963 6.55314 17.6628 6.72774C17.5293 6.90234 17.4316 7.10163 17.3755 7.31413C17.3193 7.52663 17.3057 7.74814 17.3355 7.96592C17.3652 8.18369 17.4378 8.39342 17.549 8.58304C17.7715 8.96272 18.1353 9.23894 18.5608 9.35144C18.9862 9.46393 19.439 9.40356 19.8201 9.1835C20.2013 8.96344 20.4799 8.60155 20.5952 8.17681C20.7105 7.75208 20.6531 7.29897 20.4356 6.91637ZM6.55895 14.4389C6.6265 14.6846 6.74947 14.9117 6.91841 15.1025C7.08734 15.2934 7.29777 15.443 7.53352 15.5398C7.76927 15.6367 8.02408 15.6783 8.2784 15.6614C8.53272 15.6444 8.77978 15.5695 9.00062 15.4422C9.27023 15.2864 9.49079 15.0581 9.63729 14.7833C9.78379 14.5085 9.85038 14.1982 9.8295 13.8875C9.80862 13.5768 9.70111 13.2781 9.51916 13.0254C9.33721 12.7727 9.08809 12.576 8.80006 12.4576C8.51202 12.3393 8.19659 12.304 7.88951 12.3558C7.58244 12.4075 7.29601 12.5443 7.0627 12.7505C6.82939 12.9568 6.65853 13.2243 6.5695 13.5227C6.48046 13.8211 6.47681 14.1385 6.55895 14.4389ZM19.8256 18.8072C19.636 18.696 19.4263 18.6235 19.2085 18.5937C18.9907 18.5639 18.7692 18.5775 18.5567 18.6337C18.3442 18.6899 18.1449 18.7876 17.9703 18.9211C17.7957 19.0546 17.6492 19.2213 17.5393 19.4117C17.4294 19.602 17.3583 19.8122 17.3299 20.0302C17.3016 20.2482 17.3167 20.4696 17.3743 20.6817C17.4319 20.8938 17.5308 21.0925 17.6655 21.2662C17.8002 21.4399 17.9679 21.5852 18.1589 21.6939C18.5415 21.9114 18.9947 21.9688 19.4194 21.8535C19.8441 21.7381 20.206 21.4595 20.4261 21.0784C20.6461 20.6972 20.7065 20.2445 20.594 19.819C20.4815 19.3935 20.2053 19.0298 19.8256 18.8072Z" fill="white"/>
</g>
<defs>
<clipPath id="clip0_2891_5579">
<rect width="28" height="28" fill="white"/>
</clipPath>
</defs>
</svg>
