<svg width="26" height="26" viewBox="0 0 26 26" fill="none" xmlns="http://www.w3.org/2000/svg">
<path d="M16.2502 15.1666C13.3577 15.1666 7.5835 16.6075 7.5835 19.5V21.6666H24.9168V19.5C24.9168 16.6075 19.1427 15.1666 16.2502 15.1666ZM6.50016 10.8333V7.58331H4.3335V10.8333H1.0835V13H4.3335V16.25H6.50016V13H9.75016V10.8333M16.2502 13C17.3994 13 18.5016 12.5434 19.3143 11.7308C20.1269 10.9181 20.5835 9.81592 20.5835 8.66665C20.5835 7.51737 20.1269 6.41517 19.3143 5.60252C18.5016 4.78986 17.3994 4.33331 16.2502 4.33331C15.1009 4.33331 13.9987 4.78986 13.186 5.60252C12.3734 6.41517 11.9168 7.51737 11.9168 8.66665C11.9168 9.81592 12.3734 10.9181 13.186 11.7308C13.9987 12.5434 15.1009 13 16.2502 13Z" fill="white"/>
</svg>
