<svg width="26" height="26" viewBox="0 0 26 26" fill="none" xmlns="http://www.w3.org/2000/svg">
<path d="M18.9272 10.6527V14.8863C18.9272 15.56 18.6595 16.2062 18.1831 16.6827C17.7066 17.1591 17.0604 17.4268 16.3867 17.4268H14.6937L13.2969 18.8225C13.2589 18.8629 13.213 18.8952 13.1621 18.9172C13.1111 18.9392 13.0562 18.9506 13.0007 18.9506C12.9452 18.9506 12.8903 18.9392 12.8393 18.9172C12.7884 18.8952 12.7425 18.8629 12.7045 18.8225L11.3077 17.4257H9.61476C8.94097 17.4257 8.29477 17.1581 7.81833 16.6816C7.34188 16.2052 7.07422 15.559 7.07422 14.8852V10.6538C7.07422 9.98003 7.34188 9.33383 7.81833 8.85739C8.29477 8.38094 8.94097 8.11328 9.61476 8.11328H16.3877C16.7214 8.11328 17.0517 8.17899 17.36 8.30667C17.6682 8.43434 17.9483 8.62148 18.1842 8.85739C18.4201 9.0933 18.6072 9.37337 18.7349 9.6816C18.8626 9.98983 18.9283 10.3202 18.9283 10.6538" stroke="white" stroke-width="1.49688" stroke-linecap="round" stroke-linejoin="round"/>
<path d="M16.5145 2.99805H9.48746C5.90508 2.99805 3.00098 5.90215 3.00098 9.48453V16.5116C3.00098 20.0939 5.90508 22.998 9.48746 22.998H16.5145C20.0969 22.998 23.001 20.0939 23.001 16.5116V9.48453C23.001 5.90215 20.0969 2.99805 16.5145 2.99805Z" stroke="white" stroke-width="1.49688"/>
</svg>
