<svg width="26" height="26" viewBox="0 0 26 26" fill="none" xmlns="http://www.w3.org/2000/svg">
<path d="M14.3305 15.4165L11.9059 13.032L11.9345 13.0035C13.5522 11.2151 14.7605 9.09853 15.4759 6.8H18.2727V4.9H11.5909V3H9.68182V4.9H3V6.8H13.6623C13.0227 8.624 12.0109 10.3625 10.6364 11.8825C9.74864 10.904 9.01364 9.8305 8.43136 8.7H6.52227C7.21909 10.2485 8.17364 11.7115 9.36682 13.032L4.50818 17.801L5.86364 19.15L10.6364 14.4L13.605 17.3545L14.3305 15.4165ZM19.7045 10.6H17.7955L13.5 22H15.4091L16.4782 19.15H21.0123L22.0909 22H24L19.7045 10.6ZM17.2036 17.25L18.75 13.1365L20.2964 17.25H17.2036Z" fill="#F6F6F6"/>
</svg>
