<svg width="26" height="26" viewBox="0 0 26 26" fill="none" xmlns="http://www.w3.org/2000/svg">
<path d="M10.2637 23L9.86567 19.8C9.65008 19.7167 9.4471 19.6167 9.25672 19.5C9.06634 19.3833 8.8796 19.2583 8.69652 19.125L5.73632 20.375L3 15.625L5.56219 13.675C5.54561 13.5583 5.53731 13.446 5.53731 13.338V12.663C5.53731 12.5543 5.54561 12.4417 5.56219 12.325L3 10.375L5.73632 5.625L8.69652 6.875C8.87894 6.74167 9.06965 6.61667 9.26866 6.5C9.46766 6.38333 9.66667 6.28333 9.86567 6.2L10.2637 3H15.7363L16.1343 6.2C16.3499 6.28333 16.5532 6.38333 16.7443 6.5C16.9353 6.61667 17.1217 6.74167 17.3035 6.875L20.2637 5.625L23 10.375L20.4378 12.325C20.4544 12.4417 20.4627 12.5543 20.4627 12.663V13.337C20.4627 13.4457 20.4461 13.5583 20.4129 13.675L22.9751 15.625L20.2388 20.375L17.3035 19.125C17.1211 19.2583 16.9304 19.3833 16.7313 19.5C16.5323 19.6167 16.3333 19.7167 16.1343 19.8L15.7363 23H10.2637ZM12.005 21H13.9702L14.3184 18.35C14.8325 18.2167 15.3095 18.021 15.7493 17.763C16.1891 17.505 16.591 17.1923 16.9552 16.825L19.4179 17.85L20.3881 16.15L18.2488 14.525C18.3317 14.2917 18.3897 14.046 18.4229 13.788C18.4561 13.53 18.4726 13.2673 18.4726 13C18.4726 12.7327 18.4561 12.4703 18.4229 12.213C18.3897 11.9557 18.3317 11.7097 18.2488 11.475L20.3881 9.85L19.4179 8.15L16.9552 9.2C16.5904 8.81667 16.1884 8.496 15.7493 8.238C15.3101 7.98 14.8332 7.784 14.3184 7.65L13.995 5H12.0299L11.6816 7.65C11.1675 7.78333 10.6909 7.97933 10.2517 8.238C9.8126 8.49667 9.41028 8.809 9.04478 9.175L6.58209 8.15L5.61194 9.85L7.75124 11.45C7.66832 11.7 7.61028 11.95 7.57712 12.2C7.54395 12.45 7.52736 12.7167 7.52736 13C7.52736 13.2667 7.54395 13.525 7.57712 13.775C7.61028 14.025 7.66832 14.275 7.75124 14.525L5.61194 16.15L6.58209 17.85L9.04478 16.8C9.40962 17.1833 9.81194 17.5043 10.2517 17.763C10.6915 18.0217 11.1682 18.2173 11.6816 18.35L12.005 21ZM13.0498 16.5C14.0116 16.5 14.8325 16.1583 15.5124 15.475C16.1924 14.7917 16.5323 13.9667 16.5323 13C16.5323 12.0333 16.1924 11.2083 15.5124 10.525C14.8325 9.84167 14.0116 9.5 13.0498 9.5C12.0713 9.5 11.2461 9.84167 10.5741 10.525C9.90216 11.2083 9.5665 12.0333 9.56717 13C9.56783 13.9667 9.90381 14.7917 10.5751 15.475C11.2464 16.1583 12.0713 16.5 13.0498 16.5Z" fill="white"/>
</svg>
