<svg width="18" height="17" viewBox="0 0 18 17" fill="none" xmlns="http://www.w3.org/2000/svg">
<path fill-rule="evenodd" clip-rule="evenodd" d="M14.7183 11.5144C14.7236 11.4836 14.7267 11.4524 14.7275 11.4211V2.86183C14.7275 2.37493 14.3321 1.98071 13.8439 1.98071H5.07295C4.59556 1.98071 4.13772 2.16981 3.80016 2.50642C3.46259 2.84302 3.27295 3.29956 3.27295 3.77558V12.9131C3.27295 13.3891 3.46259 13.8457 3.80016 14.1823C4.13772 14.5189 4.59556 14.708 5.07295 14.708H14.2366C14.3668 14.708 14.4916 14.6564 14.5837 14.5646C14.6758 14.4728 14.7275 14.3483 14.7275 14.2185C14.7275 14.0886 14.6758 13.9641 14.5837 13.8723C14.4916 13.7805 14.3668 13.729 14.2366 13.729H5.07295C4.9655 13.729 4.85911 13.7079 4.75984 13.6669C4.66058 13.6259 4.57038 13.5658 4.49441 13.49C4.41843 13.4142 4.35817 13.3243 4.31705 13.2253C4.27593 13.1263 4.25477 13.0203 4.25477 12.9131C4.25477 12.806 4.27593 12.6999 4.31705 12.6009C4.35817 12.5019 4.41843 12.412 4.49441 12.3362C4.57038 12.2605 4.66058 12.2004 4.75984 12.1594C4.85911 12.1184 4.9655 12.0973 5.07295 12.0973H14.2366C14.309 12.0972 14.3805 12.0813 14.4459 12.0505C14.5114 12.0196 14.5692 11.9748 14.6153 11.9191C14.6613 11.8634 14.6944 11.7982 14.7122 11.7283C14.73 11.6583 14.7321 11.5853 14.7183 11.5144ZM6.68946 4.73481C6.78152 4.64301 6.90639 4.59144 7.03659 4.59144H10.9639C11.0941 4.59144 11.2189 4.64301 11.311 4.73481C11.403 4.82661 11.4548 4.95112 11.4548 5.08095C11.4548 5.21077 11.403 5.33528 11.311 5.42708C11.2189 5.51888 11.0941 5.57046 10.9639 5.57046H7.03659C6.90639 5.57046 6.78152 5.51888 6.68946 5.42708C6.5974 5.33528 6.54568 5.21077 6.54568 5.08095C6.54568 4.95112 6.5974 4.82661 6.68946 4.73481ZM6.22005 6.31427C5.94669 6.31427 5.7251 6.53587 5.7251 6.80922C5.7251 7.08257 5.94669 7.30417 6.22005 7.30417H9.47257C9.74593 7.30417 9.96752 7.08257 9.96752 6.80922C9.96752 6.53587 9.74593 6.31427 9.47257 6.31427H6.22005Z" fill="white"/>
</svg>
