<svg width="42" height="24" viewBox="0 0 42 24" fill="none" xmlns="http://www.w3.org/2000/svg">
<rect width="42" height="24" rx="12" fill="white" fill-opacity="0.05"/>
<path d="M26.8333 16.1667V17.8334H16.8333V16.1667C16.8333 16.1667 16.8333 12.8334 21.8333 12.8334C26.8333 12.8334 26.8333 16.1667 26.8333 16.1667ZM24.3333 8.66669C24.3333 8.17223 24.1867 7.68889 23.912 7.27776C23.6373 6.86664 23.2469 6.54621 22.79 6.35699C22.3332 6.16777 21.8306 6.11826 21.3456 6.21472C20.8607 6.31119 20.4152 6.54929 20.0656 6.89892C19.7159 7.24855 19.4778 7.69401 19.3814 8.17896C19.2849 8.66391 19.3344 9.16658 19.5236 9.6234C19.7129 10.0802 20.0333 10.4707 20.4444 10.7454C20.8555 11.0201 21.3389 11.1667 21.8333 11.1667C22.4964 11.1667 23.1323 10.9033 23.6011 10.4345C24.0699 9.96561 24.3333 9.32973 24.3333 8.66669ZM27 12.8834C27.4555 13.3036 27.8228 13.8104 28.0803 14.3741C28.3379 14.9378 28.4805 15.5472 28.5 16.1667V17.8334H31V16.1667C31 16.1667 31 13.2917 27 12.8834ZM26 6.16669C25.7482 6.1667 25.498 6.20607 25.2583 6.28335C25.7459 6.9825 26.0073 7.81434 26.0073 8.66669C26.0073 9.51904 25.7459 10.3509 25.2583 11.05C25.498 11.1273 25.7482 11.1667 26 11.1667C26.663 11.1667 27.2989 10.9033 27.7678 10.4345C28.2366 9.96561 28.5 9.32973 28.5 8.66669C28.5 8.00365 28.2366 7.36776 27.7678 6.89892C27.2989 6.43008 26.663 6.16669 26 6.16669ZM17.6667 10.3334H15.1667V7.83335H13.5V10.3334H11V12H13.5V14.5H15.1667V12H17.6667V10.3334Z" fill="white"/>
</svg>
