<svg width="42" height="24" viewBox="0 0 42 24" fill="none" xmlns="http://www.w3.org/2000/svg">
<rect width="42" height="24" rx="12" fill="white" fill-opacity="0.05"/>
<path d="M21 18.75C19.275 18.75 17.772 18.1782 16.491 17.0347C15.21 15.8912 14.4755 14.463 14.2875 12.75H15.825C16 14.05 16.5782 15.125 17.5598 15.975C18.5413 16.825 19.688 17.25 21 17.25C22.4625 17.25 23.7032 16.7407 24.7222 15.7222C25.7412 14.7037 26.2505 13.463 26.25 12C26.2495 10.537 25.7402 9.2965 24.7222 8.2785C23.7042 7.2605 22.4635 6.751 21 6.75C20.1375 6.75 19.3312 6.95 18.5812 7.35C17.8312 7.75 17.2 8.3 16.6875 9H18.75V10.5H14.25V6H15.75V7.7625C16.3875 6.9625 17.1658 6.34375 18.0847 5.90625C19.0037 5.46875 19.9755 5.25 21 5.25C21.9375 5.25 22.8158 5.42825 23.6347 5.78475C24.4537 6.14125 25.1663 6.62225 25.7723 7.22775C26.3783 7.83325 26.8595 8.54575 27.216 9.36525C27.5725 10.1848 27.7505 11.063 27.75 12C27.7495 12.937 27.5715 13.8152 27.216 14.6347C26.8605 15.4542 26.3793 16.1668 25.7723 16.7723C25.1653 17.3778 24.4527 17.859 23.6347 18.216C22.8167 18.573 21.9385 18.751 21 18.75ZM23.1 15.15L20.25 12.3V8.25H21.75V11.7L24.15 14.1L23.1 15.15Z" fill="white"/>
</svg>
