<svg width="42" height="30" viewBox="0 0 42 30" fill="none" xmlns="http://www.w3.org/2000/svg">
<rect width="42" height="30" rx="15" fill="white" fill-opacity="0.05"/>
<path d="M19.5 15C19.5 15.3978 19.658 15.7794 19.9393 16.0607C20.2206 16.342 20.6022 16.5 21 16.5C21.3978 16.5 21.7794 16.342 22.0607 16.0607C22.342 15.7794 22.5 15.3978 22.5 15C22.5 14.6022 22.342 14.2206 22.0607 13.9393C21.7794 13.658 21.3978 13.5 21 13.5C20.6022 13.5 20.2206 13.658 19.9393 13.9393C19.658 14.2206 19.5 14.6022 19.5 15Z" stroke="white" stroke-width="1.5" stroke-linecap="round" stroke-linejoin="round"/>
<path d="M20.394 19.4745C17.963 19.2645 15.915 17.773 14.25 15C16.05 12 18.3 10.5 21 10.5C23.4945 10.5 25.605 11.7805 27.3315 14.3415M25.815 17.7075C25.9613 17.5612 26.1349 17.4452 26.326 17.3661C26.5171 17.2869 26.7219 17.2462 26.9288 17.2462C27.1356 17.2462 27.3404 17.2869 27.5315 17.3661C27.7226 17.4452 27.8962 17.5612 28.0425 17.7075C28.1888 17.8538 28.3048 18.0274 28.3839 18.2185C28.4631 18.4096 28.5038 18.6144 28.5038 18.8212C28.5038 19.0281 28.4631 19.2329 28.3839 19.424C28.3048 19.6151 28.1888 19.7887 28.0425 19.935L25.5 22.5H23.25V20.25L25.815 17.7075Z" stroke="white" stroke-width="1.5" stroke-linecap="round" stroke-linejoin="round"/>
</svg>
