<svg width="42" height="24" viewBox="0 0 42 24" fill="none" xmlns="http://www.w3.org/2000/svg">
<rect width="42" height="24" rx="12" fill="white" fill-opacity="0.05"/>
<path d="M18.5 11.1666H23.5C23.9583 11.1666 24.3333 11.5416 24.3333 12C24.3333 12.4583 23.9583 12.8333 23.5 12.8333H18.5C18.0416 12.8333 17.6666 12.4583 17.6666 12C17.6666 11.5416 18.0416 11.1666 18.5 11.1666ZM28.4416 12C28.9583 12 29.3333 11.5083 29.2166 11.0083C28.9932 10.1027 28.473 9.29807 27.739 8.72262C27.0049 8.14717 26.0993 7.83409 25.1666 7.83331H22.625C22.1916 7.83331 21.8333 8.19165 21.8333 8.62498C21.8333 9.05831 22.1916 9.41665 22.625 9.41665H25.1666C26.375 9.41665 27.3916 10.25 27.675 11.3666C27.7666 11.7333 28.0666 12 28.4416 12ZM14.3 11.4833C14.5333 10.2583 15.6833 9.41665 16.9333 9.41665H19.375C19.8083 9.41665 20.1666 9.05831 20.1666 8.62498C20.1666 8.19165 19.8083 7.83331 19.375 7.83331H17.0166C14.8416 7.83331 12.9 9.42498 12.6916 11.5916C12.634 12.1702 12.6982 12.7543 12.8801 13.3065C13.0621 13.8587 13.3576 14.3667 13.7478 14.7977C14.138 15.2287 14.6141 15.5732 15.1456 15.809C15.677 16.0448 16.2519 16.1666 16.8333 16.1666H19.375C19.8083 16.1666 20.1666 15.8083 20.1666 15.375C20.1666 14.9416 19.8083 14.5833 19.375 14.5833H16.8333C16.4505 14.5821 16.0728 14.4962 15.7272 14.3316C15.3816 14.1671 15.0767 13.928 14.8345 13.6316C14.5923 13.3352 14.4187 12.9889 14.3263 12.6174C14.2339 12.246 14.2249 11.8587 14.3 11.4833ZM26 12C25.5416 12 25.1666 12.375 25.1666 12.8333V14.5H23.5C23.0416 14.5 22.6666 14.875 22.6666 15.3333C22.6666 15.7916 23.0416 16.1666 23.5 16.1666H25.1666V17.8333C25.1666 18.2916 25.5416 18.6666 26 18.6666C26.4583 18.6666 26.8333 18.2916 26.8333 17.8333V16.1666H28.5C28.9583 16.1666 29.3333 15.7916 29.3333 15.3333C29.3333 14.875 28.9583 14.5 28.5 14.5H26.8333V12.8333C26.8333 12.375 26.4583 12 26 12Z" fill="white"/>
</svg>
