<svg width="30" height="29" viewBox="0 0 30 29" fill="none" xmlns="http://www.w3.org/2000/svg">
<path fill-rule="evenodd" clip-rule="evenodd" d="M25.1657 19.859C25.1751 19.8041 25.1806 19.7487 25.182 19.693V4.47659C25.182 3.61099 24.4792 2.91016 23.6111 2.91016H8.01836C7.16967 2.91016 6.35573 3.24634 5.75562 3.84474C5.1555 4.44315 4.81836 5.25476 4.81836 6.10104V22.3455C4.81836 23.1918 5.1555 24.0034 5.75562 24.6018C6.35573 25.2002 7.16967 25.5364 8.01836 25.5364H24.3093C24.5407 25.5364 24.7627 25.4447 24.9264 25.2815C25.09 25.1183 25.182 24.897 25.182 24.6662C25.182 24.4354 25.09 24.214 24.9264 24.0508C24.7627 23.8876 24.5407 23.7959 24.3093 23.7959H8.01836C7.82735 23.7959 7.6382 23.7584 7.46173 23.6855C7.28525 23.6126 7.12491 23.5058 6.98984 23.3711C6.85477 23.2364 6.74763 23.0765 6.67453 22.9006C6.60144 22.7246 6.56381 22.536 6.56381 22.3455C6.56381 22.1551 6.60144 21.9665 6.67453 21.7905C6.74763 21.6145 6.85477 21.4546 6.98984 21.3199C7.12491 21.1853 7.28525 21.0784 7.46173 21.0055C7.6382 20.9326 7.82735 20.8951 8.01836 20.8951H24.3093C24.438 20.8951 24.565 20.8667 24.6814 20.8119C24.7978 20.7572 24.9006 20.6774 24.9825 20.5784C25.0643 20.4794 25.1232 20.3635 25.1549 20.2391C25.1865 20.1148 25.1902 19.9849 25.1657 19.859ZM10.8922 7.80633C11.0558 7.64313 11.2778 7.55144 11.5093 7.55144H18.4911C18.7225 7.55144 18.9445 7.64313 19.1082 7.80633C19.2719 7.96953 19.3638 8.19088 19.3638 8.42168C19.3638 8.65248 19.2719 8.87383 19.1082 9.03703C18.9445 9.20024 18.7225 9.29192 18.4911 9.29192H11.5093C11.2778 9.29192 11.0558 9.20024 10.8922 9.03703C10.7285 8.87383 10.6365 8.65248 10.6365 8.42168C10.6365 8.19088 10.7285 7.96953 10.8922 7.80633ZM11.0576 10.6133C10.5717 10.6133 10.1777 11.0072 10.1777 11.4932C10.1777 11.9792 10.5717 12.3731 11.0576 12.3731H16.8399C17.3259 12.3731 17.7198 11.9792 17.7198 11.4932C17.7198 11.0072 17.3259 10.6133 16.8399 10.6133H11.0576Z" fill="white"/>
</svg>
