<svg width="30" height="30" viewBox="0 0 30 30" fill="none" xmlns="http://www.w3.org/2000/svg">
<path fill-rule="evenodd" clip-rule="evenodd" d="M13.7563 6.91434L13.087 6.44101C12.1318 5.76506 10.9904 5.40215 9.8203 5.40234H9.0043C8.4643 5.40234 7.9203 5.43568 7.4123 5.61568C4.23497 6.74368 2.04964 10.8623 2.2083 20.2063C2.2403 22.089 2.6803 24.169 4.37897 24.981C4.95843 25.2596 5.59335 25.4036 6.2363 25.4023C6.95897 25.4142 7.66891 25.2114 8.2763 24.8197C8.82297 24.4623 9.30297 23.9983 9.78297 23.5343C10.375 22.961 10.967 22.3877 11.6816 22.017C12.4602 21.6129 13.3245 21.4021 14.2016 21.4023H16.867C17.7443 21.4023 18.6083 21.613 19.387 22.0157C20.1016 22.3877 20.6936 22.961 21.287 23.5343C21.767 23.9983 22.247 24.4623 22.791 24.8197C23.311 25.161 23.9843 25.4023 24.8323 25.4023C25.4753 25.4036 26.1102 25.2596 26.6896 24.981C28.3883 24.169 28.8283 22.0877 28.8603 20.2063C29.019 10.8623 26.8336 6.74368 23.6563 5.61701C23.147 5.43568 22.6003 5.40234 22.063 5.40234H21.247C20.0767 5.40254 18.9353 5.76592 17.9803 6.44234L17.311 6.91434C16.7911 7.28167 16.1702 7.47889 15.5336 7.47889C14.8971 7.47889 14.2762 7.28167 13.7563 6.91434ZM21.867 10.7357C22.1322 10.7357 22.3865 10.841 22.5741 11.0286C22.7616 11.2161 22.867 11.4705 22.867 11.7357C22.867 12.0009 22.7616 12.2552 22.5741 12.4428C22.3865 12.6303 22.1322 12.7357 21.867 12.7357C21.6018 12.7357 21.3474 12.6303 21.1599 12.4428C20.9723 12.2552 20.867 12.0009 20.867 11.7357C20.867 11.4705 20.9723 11.2161 21.1599 11.0286C21.3474 10.841 21.6018 10.7357 21.867 10.7357ZM9.53364 11.069C9.79885 11.069 10.0532 11.1744 10.2407 11.3619C10.4283 11.5494 10.5336 11.8038 10.5336 12.069V13.069H11.5336C11.7989 13.069 12.0532 13.1744 12.2407 13.3619C12.4283 13.5494 12.5336 13.8038 12.5336 14.069C12.5336 14.3342 12.4283 14.5886 12.2407 14.7761C12.0532 14.9637 11.7989 15.069 11.5336 15.069H10.5336V16.069C10.5336 16.3342 10.4283 16.5886 10.2407 16.7761C10.0532 16.9637 9.79885 17.069 9.53364 17.069C9.26842 17.069 9.01407 16.9637 8.82653 16.7761C8.63899 16.5886 8.53364 16.3342 8.53364 16.069V15.069H7.53364C7.26842 15.069 7.01407 14.9637 6.82653 14.7761C6.63899 14.5886 6.53364 14.3342 6.53364 14.069C6.53364 13.8038 6.63899 13.5494 6.82653 13.3619C7.01407 13.1744 7.26842 13.069 7.53364 13.069H8.53364V12.069C8.53364 11.8038 8.63899 11.5494 8.82653 11.3619C9.01407 11.1744 9.26842 11.069 9.53364 11.069ZM24.867 13.7357C24.867 14.0009 24.7616 14.2552 24.5741 14.4428C24.3865 14.6303 24.1322 14.7357 23.867 14.7357C23.6018 14.7357 23.3474 14.6303 23.1599 14.4428C22.9723 14.2552 22.867 14.0009 22.867 13.7357C22.867 13.4705 22.9723 13.2161 23.1599 13.0286C23.3474 12.841 23.6018 12.7357 23.867 12.7357C24.1322 12.7357 24.3865 12.841 24.5741 13.0286C24.7616 13.2161 24.867 13.4705 24.867 13.7357ZM19.867 14.7357C20.1322 14.7357 20.3865 14.6303 20.5741 14.4428C20.7616 14.2552 20.867 14.0009 20.867 13.7357C20.867 13.4705 20.7616 13.2161 20.5741 13.0286C20.3865 12.841 20.1322 12.7357 19.867 12.7357C19.6018 12.7357 19.3474 12.841 19.1599 13.0286C18.9723 13.2161 18.867 13.4705 18.867 13.7357C18.867 14.0009 18.9723 14.2552 19.1599 14.4428C19.3474 14.6303 19.6018 14.7357 19.867 14.7357ZM22.867 15.7357C22.867 15.4705 22.7616 15.2161 22.5741 15.0286C22.3865 14.841 22.1322 14.7357 21.867 14.7357C21.6018 14.7357 21.3474 14.841 21.1599 15.0286C20.9723 15.2161 20.867 15.4705 20.867 15.7357C20.867 16.0009 20.9723 16.2552 21.1599 16.4428C21.3474 16.6303 21.6018 16.7357 21.867 16.7357C22.1322 16.7357 22.3865 16.6303 22.5741 16.4428C22.7616 16.2552 22.867 16.0009 22.867 15.7357Z" fill="white"/>
</svg>
